<svg width="64" height="64" viewBox="0 0 64 64" fill="none" xmlns="http://www.w3.org/2000/svg">
<path d="M0 8C0 3.58172 3.58172 0 8 0H56C60.4183 0 64 3.58172 64 8V56C64 60.4183 60.4183 64 56 64H8C3.58172 64 0 60.4183 0 56V8Z" fill="#F7F7F7"/>
<path d="M38.6663 34.6673V42.6673M34.6663 38.6673H42.6663M36.7997 29.334H40.533C41.2797 29.334 41.6531 29.334 41.9383 29.1887C42.1892 29.0608 42.3932 28.8569 42.521 28.606C42.6663 28.3208 42.6663 27.9474 42.6663 27.2007V23.4673C42.6663 22.7206 42.6663 22.3472 42.521 22.062C42.3932 21.8111 42.1892 21.6071 41.9383 21.4793C41.6531 21.334 41.2797 21.334 40.533 21.334H36.7997C36.0529 21.334 35.6796 21.334 35.3944 21.4793C35.1435 21.6071 34.9395 21.8111 34.8117 22.062C34.6663 22.3472 34.6663 22.7206 34.6663 23.4673V27.2007C34.6663 27.9474 34.6663 28.3208 34.8117 28.606C34.9395 28.8569 35.1435 29.0608 35.3944 29.1887C35.6796 29.334 36.0529 29.334 36.7997 29.334ZM23.4663 29.334H27.1997C27.9464 29.334 28.3198 29.334 28.605 29.1887C28.8559 29.0608 29.0599 28.8569 29.1877 28.606C29.333 28.3208 29.333 27.9474 29.333 27.2007V23.4673C29.333 22.7206 29.333 22.3472 29.1877 22.062C29.0599 21.8111 28.8559 21.6071 28.605 21.4793C28.3198 21.334 27.9464 21.334 27.1997 21.334H23.4663C22.7196 21.334 22.3462 21.334 22.061 21.4793C21.8101 21.6071 21.6062 21.8111 21.4783 22.062C21.333 22.3472 21.333 22.7206 21.333 23.4673V27.2007C21.333 27.9474 21.333 28.3208 21.4783 28.606C21.6062 28.8569 21.8101 29.0608 22.061 29.1887C22.3462 29.334 22.7196 29.334 23.4663 29.334ZM23.4663 42.6673H27.1997C27.9464 42.6673 28.3198 42.6673 28.605 42.522C28.8559 42.3942 29.0599 42.1902 29.1877 41.9393C29.333 41.6541 29.333 41.2807 29.333 40.534V36.8007C29.333 36.0539 29.333 35.6805 29.1877 35.3953C29.0599 35.1444 28.8559 34.9405 28.605 34.8126C28.3198 34.6673 27.9464 34.6673 27.1997 34.6673H23.4663C22.7196 34.6673 22.3462 34.6673 22.061 34.8126C21.8101 34.9405 21.6062 35.1444 21.4783 35.3953C21.333 35.6805 21.333 36.0539 21.333 36.8007V40.534C21.333 41.2807 21.333 41.6541 21.4783 41.9393C21.6062 42.1902 21.8101 42.3942 22.061 42.522C22.3462 42.6673 22.7196 42.6673 23.4663 42.6673Z" stroke="#2B948F" stroke-width="2" stroke-linecap="round" stroke-linejoin="round"/>
</svg>
