<svg width="43" height="48" viewBox="0 0 43 48" fill="none" xmlns="http://www.w3.org/2000/svg">
<g clip-path="url(#clip0_947_7258)">
<path d="M42.3242 14.1189C42.3238 13.314 42.1528 12.6027 41.8071 11.9923C41.4674 11.392 40.9587 10.8889 40.2764 10.4911C34.6444 7.2216 29.0068 3.96209 23.3766 0.689253C21.8587 -0.192992 20.387 -0.160828 18.8804 0.734082C16.6386 2.06512 5.41504 8.53897 2.07056 10.4893C0.693211 11.292 0.0229907 12.5206 0.0226597 14.1174C0.0205078 20.6926 0.0226597 27.2676 0.0205078 33.8429C0.0208389 34.6302 0.184545 35.3276 0.515103 35.9289C0.854931 36.5473 1.37071 37.0643 2.06874 37.4711C5.41339 39.4214 16.6385 45.8947 18.8797 47.2261C20.387 48.1215 21.8587 48.1535 23.3771 47.2709C29.0075 43.9979 34.6454 40.7386 40.2782 37.4691C40.9763 37.0624 41.4921 36.5452 41.8319 35.9272C42.1619 35.326 42.326 34.6285 42.3263 33.8411C42.3263 33.8411 42.3263 20.6943 42.3242 14.1189Z" fill="#2B948F"/>
<path d="M21.2396 23.916L0.516602 35.9288C0.856429 36.5473 1.37221 37.0642 2.07024 37.471C5.41489 39.4213 16.64 45.8947 18.8812 47.226C20.3885 48.1214 21.8602 48.1534 23.3786 47.2708C29.009 43.9978 34.6468 40.7385 40.2797 37.469C40.9778 37.0624 41.4936 36.5451 41.8334 35.9271L21.2396 23.916Z" fill="#1D6D69"/>
<path d="M15.0986 27.4743C16.3045 29.5938 18.5714 31.0233 21.1718 31.0233C23.7883 31.0233 26.0681 29.5756 27.2679 27.4335L21.2366 23.916L15.0986 27.4743Z" fill="#1D6D69"/>
<path d="M42.3253 14.1188C42.325 13.3139 42.154 12.6026 41.8082 11.9922L21.2393 23.916L41.833 35.9271C42.1631 35.3259 42.3271 34.6284 42.3274 33.841C42.3274 33.841 42.3274 20.6942 42.3253 14.1188Z" fill="#1D6D69"/>
<path d="M41.1929 24.7753H39.5836V26.3958H37.974V24.7753H36.3649V23.1553H37.974V21.5352H39.5836V23.1553H41.1929V24.7753ZM35.3208 24.7753H33.7117V26.3958H32.1024V24.7753H30.4932V23.1553H32.1024V21.5352H33.7117V23.1553H35.3208V24.7753Z" fill="white"/>
<path d="M27.2712 27.4337C26.0714 29.5758 23.7916 31.0235 21.1751 31.0235C18.5747 31.0235 16.3078 29.594 15.1019 27.4745C14.4961 26.411 14.178 25.2062 14.1793 23.9802C14.1793 20.0904 17.3115 16.9371 21.1751 16.9371C23.7588 16.9371 26.0138 18.3488 27.2256 20.4465L33.3404 16.9016C30.9099 12.6777 26.3723 9.83594 21.1751 9.83594C13.4159 9.83594 7.12598 16.1686 7.12598 23.9802C7.12598 26.5429 7.80315 28.9462 8.98667 31.0191C11.411 35.2654 15.9615 38.1246 21.1751 38.1246C26.3983 38.1246 30.956 35.2539 33.3768 30.9952L27.2712 27.4337Z" fill="#CEF4E3"/>
</g>
<defs>
<clipPath id="clip0_947_7258">
<rect width="42.375" height="48" fill="white" transform="translate(0.0205078)"/>
</clipPath>
</defs>
</svg>
