<svg width="43" height="48" viewBox="0 0 43 48" fill="none" xmlns="http://www.w3.org/2000/svg">
<g clip-path="url(#clip0_947_7461)">
<path d="M42.8242 14.1189C42.8238 13.314 42.6528 12.6027 42.3071 11.9923C41.9674 11.392 41.4587 10.8889 40.7764 10.4911C35.1444 7.2216 29.5068 3.96209 23.8766 0.689253C22.3587 -0.192992 20.887 -0.160828 19.3804 0.734082C17.1386 2.06512 5.91504 8.53897 2.57056 10.4893C1.19321 11.292 0.522991 12.5206 0.52266 14.1174C0.520508 20.6926 0.52266 27.2676 0.520508 33.8429C0.520839 34.6302 0.684545 35.3276 1.0151 35.9289C1.35493 36.5473 1.87071 37.0643 2.56874 37.4711C5.91339 39.4214 17.1385 45.8947 19.3797 47.2261C20.887 48.1215 22.3587 48.1535 23.8771 47.2709C29.5075 43.9979 35.1454 40.7386 40.7782 37.4691C41.4763 37.0624 41.9921 36.5452 42.3319 35.9272C42.6619 35.326 42.826 34.6285 42.8263 33.8411C42.8263 33.8411 42.8263 20.6943 42.8242 14.1189Z" fill="#2B948F"/>
<path d="M21.7396 23.916L1.0166 35.9288C1.35643 36.5473 1.87221 37.0642 2.57024 37.471C5.91489 39.4213 17.14 45.8947 19.3812 47.226C20.8885 48.1214 22.3602 48.1534 23.8786 47.2708C29.509 43.9978 35.1468 40.7385 40.7797 37.469C41.4778 37.0624 41.9936 36.5451 42.3334 35.9271L21.7396 23.916Z" fill="#1D6D69"/>
<path d="M15.5986 27.4743C16.8045 29.5938 19.0714 31.0233 21.6718 31.0233C24.2883 31.0233 26.5681 29.5756 27.7679 27.4335L21.7366 23.916L15.5986 27.4743Z" fill="#1D6D69"/>
<path d="M42.8253 14.1188C42.825 13.3139 42.654 12.6026 42.3082 11.9922L21.7393 23.916L42.333 35.9271C42.6631 35.3259 42.8271 34.6284 42.8274 33.841C42.8274 33.841 42.8274 20.6942 42.8253 14.1188Z" fill="#1D6D69"/>
<path d="M28.3532 27.4337C27.1534 29.5758 24.8736 31.0235 22.2571 31.0235C19.6567 31.0235 17.3898 29.594 16.1839 27.4745C15.5782 26.411 15.26 25.2062 15.2613 23.9802C15.2613 20.0904 18.3936 16.9371 22.2571 16.9371C24.8409 16.9371 27.0958 18.3488 28.3077 20.4465L34.4224 16.9016C31.992 12.6777 27.4544 9.83594 22.2571 9.83594C14.4979 9.83594 8.20801 16.1686 8.20801 23.9802C8.20801 26.5429 8.88518 28.9462 10.0687 31.0191C12.493 35.2654 17.0435 38.1246 22.2571 38.1246C27.4804 38.1246 32.038 35.2539 34.4588 30.9952L28.3532 27.4337Z" fill="#CEF4E3"/>
</g>
<defs>
<clipPath id="clip0_947_7461">
<rect width="42.375" height="48" fill="white" transform="translate(0.520508)"/>
</clipPath>
</defs>
</svg>
