<svg width="61" height="61" viewBox="0 0 61 61" fill="none" xmlns="http://www.w3.org/2000/svg">
<g clip-path="url(#clip0_947_7194)">
<path d="M54.2565 24.6238L54.2567 24.624C57.5027 31.2449 53.7343 37.6949 48.0859 39.0687L48.0858 39.0688C47.4025 39.235 46.6694 39.2881 45.8874 39.2872H45.8862H45.0565V35.1397C45.0565 33.8549 44.3887 32.8098 43.4689 32.0158C42.5599 31.2311 41.3314 30.6201 39.9724 30.1497C37.2462 29.2061 33.7151 28.7337 30.333 28.7337C26.9872 28.7337 23.4996 29.1968 20.7895 30.1202C19.438 30.5807 18.2147 31.1775 17.2981 31.9408C16.6541 32.477 16.1222 33.1317 15.8399 33.905H15.6096V35.03V39.2735L14.7636 39.2731H14.763C13.8764 39.2731 13.0473 39.204 12.2798 38.9901L12.2793 38.9899C7.90811 37.7737 4.76724 33.5022 5.25876 28.5601L5.25876 28.56C5.65441 24.5795 8.49124 21.5138 12.4124 20.2444L12.4127 20.2443C13.2208 19.9823 14.1005 19.8691 15.1635 19.847C15.1637 19.847 15.164 19.847 15.1642 19.8469L16.7956 19.8142L16.7992 19.8141C17.5917 19.7956 18.0999 19.1384 18.1088 18.4808C18.2161 11.1378 24.1243 5.375 31.4065 5.375C38.6863 5.375 44.6152 11.3126 44.6984 18.6983L44.704 19.1961L45.0762 19.5267L45.0847 19.5342L45.4299 19.8409L45.8911 19.8166C49.3882 19.6318 52.72 21.488 54.2565 24.6238ZM19.2912 45.485C20.4165 46.009 21.725 46.4169 23.1017 46.7228C25.3373 47.2194 27.8667 47.4716 30.333 47.4716C32.7993 47.4716 35.3287 47.2194 37.5644 46.7227C38.9411 46.4168 40.2495 46.0087 41.3749 45.4845V46.969C41.3667 46.9867 41.3033 47.1571 40.9069 47.4518C40.4398 47.799 39.6925 48.1749 38.6689 48.5196C36.634 49.2048 33.7168 49.6972 30.333 49.6972C26.9493 49.6972 24.0321 49.2048 21.9973 48.5195C20.9737 48.1747 20.2264 47.7988 19.7593 47.4515C19.3624 47.1563 19.2993 46.9858 19.2912 46.9682V45.485Z" stroke="#2B948F" stroke-width="2.25"/>
<path d="M19.29 51.4127C20.4154 51.9369 21.7239 52.345 23.1006 52.6509C25.3362 53.1477 27.8656 53.3998 30.3319 53.3998C32.7982 53.3998 35.3276 53.1477 37.5633 52.6509C38.9399 52.345 40.2484 51.9369 41.3738 51.4127V52.8964C41.3657 52.914 41.3026 53.0845 40.9057 53.3797C40.4386 53.727 39.6913 54.1029 38.6677 54.4477C36.6329 55.133 33.7157 55.6254 30.3319 55.6254C26.9481 55.6254 24.031 55.133 21.9961 54.4477C20.9725 54.1029 20.2253 53.727 19.7582 53.3797C19.3613 53.0845 19.2982 52.914 19.29 52.8964V51.4127ZM30.3319 41.546C32.7983 41.546 35.3277 41.2937 37.5634 40.7966C38.94 40.4906 40.2485 40.0824 41.3738 39.5581V41.0417C41.3657 41.0594 41.3026 41.2298 40.9057 41.525C40.4386 41.8723 39.6913 42.2482 38.6677 42.593C36.6329 43.2783 33.7157 43.7707 30.3319 43.7707C26.9481 43.7707 24.031 43.2783 21.9961 42.593C20.9725 42.2482 20.2253 41.8723 19.7582 41.525C19.3613 41.2298 19.2982 41.0594 19.29 41.0417V39.5581C20.4154 40.0824 21.7238 40.4906 23.1005 40.7966C25.3361 41.2937 27.8656 41.546 30.3319 41.546Z" stroke="#2B948F" stroke-width="2.25"/>
<path d="M19.7582 35.5973C19.4346 35.3567 19.3329 35.1989 19.3019 35.1393C19.3329 35.0797 19.4346 34.9219 19.7582 34.6813C20.2253 34.3339 20.9725 33.958 21.9961 33.6133C24.031 32.928 26.9481 32.4355 30.3319 32.4355C33.7157 32.4355 36.6329 32.928 38.6677 33.6133C39.6913 33.958 40.4386 34.3339 40.9057 34.6813C41.2293 34.9219 41.331 35.0797 41.3619 35.1393C41.331 35.1989 41.2293 35.3567 40.9057 35.5973C40.4386 35.9447 39.6913 36.3206 38.6677 36.6653C36.6329 37.3506 33.7157 37.843 30.3319 37.843C26.9481 37.843 24.031 37.3506 21.9961 36.6653C20.9725 36.3206 20.2253 35.9447 19.7582 35.5973Z" fill="#2B948F" stroke="#2B948F" stroke-width="2.25"/>
</g>
<defs>
<clipPath id="clip0_947_7194">
<rect width="60" height="60" fill="white" transform="translate(0.333008 0.5)"/>
</clipPath>
</defs>
</svg>
