<svg width="60" height="61" viewBox="0 0 60 61" fill="none" xmlns="http://www.w3.org/2000/svg">
<g clip-path="url(#clip0_947_7206)">
<path d="M53.7235 8.43879L52.4312 7.14648L30.0004 29.5773L7.56965 7.14648L6.27734 8.43879L28.7081 30.8696L6.27734 53.3003L7.56965 54.5926L30.0004 32.1619L52.4312 54.5926L53.7235 53.3003L31.2927 30.8696L53.7235 8.43879Z" fill="#1D6D69" fill-opacity="0.6"/>
<path d="M53.0787 13.884C56.6473 13.884 59.5403 10.9911 59.5403 7.42248C59.5403 3.85387 56.6473 0.960938 53.0787 0.960938C49.5101 0.960938 46.6172 3.85387 46.6172 7.42248C46.6172 10.9911 49.5101 13.884 53.0787 13.884Z" fill="#2B948F"/>
<path d="M53.0787 1.6994C56.4941 1.6994 59.3556 4.37632 59.5403 7.79171C59.5403 7.6994 59.5403 7.51478 59.5403 7.42248C59.5403 3.82248 56.6787 0.960938 53.0787 0.960938C49.4787 0.960938 46.6172 3.82248 46.6172 7.42248C46.6172 7.51478 46.6172 7.6994 46.6172 7.79171C46.8018 4.37632 49.6633 1.6994 53.0787 1.6994Z" fill="#3ABDB7"/>
<path d="M53.5393 6.86878C54.5547 6.68417 55.3855 5.76109 55.3855 4.6534C55.3855 3.36109 54.3701 2.3457 53.0778 2.3457C51.7855 2.3457 50.7701 3.36109 50.7701 4.6534C50.7701 5.76109 51.5085 6.68417 52.6162 6.86878C50.5855 7.0534 48.9239 8.62263 48.5547 10.6534C49.5701 12.038 51.2316 12.9611 53.0778 12.9611C54.9239 12.9611 56.5855 12.038 57.6008 10.6534C57.2316 8.62263 55.6624 7.0534 53.5393 6.86878Z" fill="#EFF3F5"/>
<path d="M6.92248 60.0383C10.4911 60.0383 13.384 57.1454 13.384 53.5768C13.384 50.0082 10.4911 47.1152 6.92248 47.1152C3.35387 47.1152 0.460938 50.0082 0.460938 53.5768C0.460938 57.1454 3.35387 60.0383 6.92248 60.0383Z" fill="#2B948F"/>
<path d="M6.92248 47.8537C10.3379 47.8537 13.1994 50.5306 13.384 53.946C13.384 53.8537 13.384 53.6691 13.384 53.5768C13.384 49.9768 10.5225 47.1152 6.92248 47.1152C3.32248 47.1152 0.460938 49.9768 0.460938 53.5768C0.460938 53.6691 0.460938 53.8537 0.460938 53.946C0.645553 50.5306 3.50709 47.8537 6.92248 47.8537Z" fill="#3ABDB7"/>
<path d="M7.38305 53.0231C8.39844 52.8385 9.22921 51.9154 9.22921 50.8077C9.22921 49.5154 8.21382 48.5 6.92151 48.5C5.62921 48.5 4.61382 49.5154 4.61382 50.8077C4.61382 51.9154 5.35228 52.8385 6.45998 53.0231C4.42921 53.2077 2.76767 54.7769 2.39844 56.8077C3.41382 58.1923 5.07536 59.1154 6.92151 59.1154C8.76767 59.1154 10.4292 58.1923 11.4446 56.8077C11.0754 54.7769 9.50613 53.2077 7.38305 53.0231Z" fill="#EFF3F5"/>
<path d="M6.92248 13.884C10.4911 13.884 13.384 10.9911 13.384 7.42248C13.384 3.85387 10.4911 0.960938 6.92248 0.960938C3.35387 0.960938 0.460938 3.85387 0.460938 7.42248C0.460938 10.9911 3.35387 13.884 6.92248 13.884Z" fill="#2B948F"/>
<path d="M6.92248 1.6994C10.3379 1.6994 13.1994 4.37632 13.384 7.79171C13.384 7.6994 13.384 7.51478 13.384 7.42248C13.384 3.82248 10.5225 0.960938 6.92248 0.960938C3.32248 0.960938 0.460938 3.82248 0.460938 7.42248C0.460938 7.51478 0.460938 7.6994 0.460938 7.79171C0.645553 4.37632 3.50709 1.6994 6.92248 1.6994Z" fill="#3ABDB7"/>
<path d="M7.38305 6.86831C8.39844 6.6837 9.22921 5.76062 9.22921 4.65293C9.22921 3.36062 8.21382 2.34523 6.92151 2.34523C5.62921 2.25293 4.61382 3.36062 4.61382 4.56062C4.61382 5.66831 5.35228 6.59139 6.45998 6.776C4.3369 7.05293 2.76767 8.62216 2.39844 10.6529C3.41382 12.0375 5.07536 12.9606 6.92151 12.9606C8.76767 12.9606 10.4292 12.0375 11.4446 10.6529C11.0754 8.62216 9.50613 7.05293 7.38305 6.86831Z" fill="#EFF3F5"/>
<path d="M53.0787 60.0383C56.6473 60.0383 59.5403 57.1454 59.5403 53.5768C59.5403 50.0082 56.6473 47.1152 53.0787 47.1152C49.5101 47.1152 46.6172 50.0082 46.6172 53.5768C46.6172 57.1454 49.5101 60.0383 53.0787 60.0383Z" fill="#2B948F"/>
<path d="M53.0787 47.8537C56.4941 47.8537 59.3556 50.5306 59.5403 53.946C59.5403 53.8537 59.5403 53.6691 59.5403 53.5768C59.5403 49.9768 56.6787 47.1152 53.0787 47.1152C49.4787 47.1152 46.6172 49.9768 46.6172 53.5768C46.6172 53.6691 46.6172 53.8537 46.6172 53.946C46.8018 50.5306 49.6633 47.8537 53.0787 47.8537Z" fill="#3ABDB7"/>
<path d="M53.5393 53.0231C54.5547 52.8385 55.3855 51.9154 55.3855 50.8077C55.3855 49.5154 54.3701 48.5 53.0778 48.5C51.7855 48.5 50.7701 49.5154 50.7701 50.8077C50.7701 51.9154 51.5085 52.8385 52.6162 53.0231C50.5855 53.2077 48.9239 54.7769 48.5547 56.8077C49.5701 58.1923 51.2316 59.1154 53.0778 59.1154C54.9239 59.1154 56.5855 58.1923 57.6008 56.8077C57.2316 54.7769 55.6624 53.2077 53.5393 53.0231Z" fill="#EFF3F5"/>
<path d="M29.9997 45.2689C38.1565 45.2689 44.7689 38.6565 44.7689 30.4997C44.7689 22.3429 38.1565 15.7305 29.9997 15.7305C21.8429 15.7305 15.2305 22.3429 15.2305 30.4997C15.2305 38.6565 21.8429 45.2689 29.9997 45.2689Z" fill="#EFF3F5"/>
<path d="M38.1251 18.1289C39.6943 20.4366 40.5251 23.2058 40.5251 26.252C40.5251 34.3751 33.879 41.0212 25.7559 41.0212C22.802 41.0212 19.9405 40.0981 17.6328 38.6212C20.3097 42.5904 24.8328 45.2674 30.002 45.2674C38.1251 45.2674 44.7713 38.6212 44.7713 30.4981C44.7713 25.3289 42.0943 20.8058 38.1251 18.1289Z" fill="#DEDFE0"/>
<path d="M30.0015 14.3457C21.14 14.3457 13.8477 21.638 13.8477 30.4995C13.8477 39.3611 21.14 46.6534 30.0015 46.6534C38.863 46.6534 46.1553 39.3611 46.1553 30.4995C46.1553 21.638 38.863 14.3457 30.0015 14.3457ZM30.0015 43.8842C28.9861 43.8842 27.7861 42.4072 26.863 39.8226H33.14C32.2169 42.4072 31.0169 43.8842 30.0015 43.8842ZM26.1246 37.0534C25.7553 35.5765 25.5707 33.8226 25.4784 31.8842H34.5246C34.4323 33.8226 34.2477 35.5765 33.8784 37.0534H26.1246ZM16.7092 31.8842H22.7092C22.8015 33.638 22.9861 35.3919 23.263 37.0534H18.3707C17.4477 35.4842 16.8938 33.7303 16.7092 31.8842ZM30.0015 17.1149C31.0169 17.1149 32.2169 18.5919 33.14 21.1765H26.863C27.7861 18.5919 28.9861 17.1149 30.0015 17.1149ZM33.8784 23.9457C34.2477 25.4226 34.4323 27.1765 34.5246 29.1149H25.4784C25.5707 27.1765 25.7553 25.4226 26.1246 23.9457H33.8784ZM22.7092 29.1149H16.7092C16.8938 27.2688 17.4477 25.5149 18.3707 23.9457H23.263C22.9861 25.6072 22.8015 27.3611 22.7092 29.1149ZM37.2938 31.8842H43.2938C43.1092 33.7303 42.5553 35.4842 41.6323 37.0534H36.74C37.0169 35.3919 37.2015 33.638 37.2938 31.8842ZM37.2938 29.1149C37.2015 27.3611 37.0169 25.6072 36.74 23.9457H41.6323C42.5553 25.5149 43.1092 27.2688 43.2938 29.1149H37.2938ZM39.6015 21.1765H36.0015C35.6323 19.9765 35.263 18.9611 34.7092 18.038C36.5553 18.6842 38.2169 19.7919 39.6015 21.1765ZM25.2938 18.038C24.8323 18.9611 24.3707 20.0688 24.0015 21.1765H20.4938C21.7861 19.7919 23.4477 18.6842 25.2938 18.038ZM20.4015 39.8226H24.0015C24.3707 41.0226 24.74 42.038 25.2938 42.9611C23.4477 42.3149 21.7861 41.2072 20.4015 39.8226ZM34.7092 42.9611C35.1707 42.038 35.6323 40.9303 36.0015 39.8226H39.5092C38.2169 41.2072 36.5553 42.3149 34.7092 42.9611Z" fill="#2B948F"/>
</g>
<defs>
<clipPath id="clip0_947_7206">
<rect width="60" height="60" fill="white" transform="translate(0 0.5)"/>
</clipPath>
</defs>
</svg>
