<svg width="49" height="48" viewBox="0 0 49 48" fill="none" xmlns="http://www.w3.org/2000/svg">
<path fill-rule="evenodd" clip-rule="evenodd" d="M37.4633 13.3711C37.1996 13.3711 36.9805 13.5469 36.9805 13.8101C36.9805 14.1174 37.1999 14.2932 37.4633 14.2932C37.7268 14.2932 37.9462 14.1174 37.9462 13.8101C37.9464 13.5469 37.727 13.3711 37.4633 13.3711ZM37.4633 13.4149C37.5153 13.4147 37.5667 13.4248 37.6147 13.4446C37.6628 13.4644 37.7064 13.4935 37.7431 13.5302C37.7798 13.567 37.8089 13.6106 37.8287 13.6587C37.8484 13.7067 37.8585 13.7582 37.8583 13.8101C37.8583 14.0736 37.6827 14.2494 37.4633 14.2494C37.1996 14.2494 37.024 14.0736 37.024 13.8101C37.0243 13.5907 37.1999 13.4149 37.4633 13.4149ZM37.6827 14.1177L37.551 13.8542C37.6391 13.8104 37.6827 13.7663 37.6827 13.7225C37.6827 13.6346 37.595 13.5469 37.4633 13.5469H37.2434V14.1177H37.3316V13.8983H37.4633L37.595 14.1177H37.6827ZM37.3316 13.8101V13.6346H37.4633C37.551 13.6346 37.595 13.6784 37.595 13.6784C37.595 13.7663 37.5507 13.8101 37.4633 13.8101H37.3316Z" fill="#0C0E0F"/>
<path fill-rule="evenodd" clip-rule="evenodd" d="M17.5312 34.4484H24.7765V34.3164H17.5312V34.4484Z" fill="#A1C677"/>
<path fill-rule="evenodd" clip-rule="evenodd" d="M17.5312 34.3173H24.7765V34.1855H17.5312V34.3173Z" fill="#A4C67F"/>
<path fill-rule="evenodd" clip-rule="evenodd" d="M17.5312 34.1853H24.7765V34.0098H17.5312V34.1853Z" fill="#A9C983"/>
<path fill-rule="evenodd" clip-rule="evenodd" d="M17.5312 34.0106H24.7765V33.8789H17.5312V34.0106Z" fill="#AECC8B"/>
<path fill-rule="evenodd" clip-rule="evenodd" d="M17.5312 33.8781H24.7765V33.7461H17.5312V33.8781Z" fill="#B1CF92"/>
<path fill-rule="evenodd" clip-rule="evenodd" d="M17.5312 33.745H24.7765V33.6133H17.5312V33.745Z" fill="#B6D296"/>
<path fill-rule="evenodd" clip-rule="evenodd" d="M17.5312 33.615H24.7765V33.4395H17.5312V33.615Z" fill="#B9D29B"/>
<path fill-rule="evenodd" clip-rule="evenodd" d="M17.5312 33.4403H24.7765V33.3086H17.5312V33.4403Z" fill="#BDD4A0"/>
<path fill-rule="evenodd" clip-rule="evenodd" d="M17.5312 33.3078H24.7765V33.1758H17.5312V33.3078Z" fill="#C4D9A8"/>
<path fill-rule="evenodd" clip-rule="evenodd" d="M17.5312 33.1742H24.7765V33.043H17.5312V33.1742Z" fill="#C5DAAD"/>
<path fill-rule="evenodd" clip-rule="evenodd" d="M17.5312 33.0432H24.7765V32.8672H17.5312V33.0432Z" fill="#C8DAB2"/>
<path fill-rule="evenodd" clip-rule="evenodd" d="M17.5312 32.8695H24.7765V32.7383H17.5312V32.8695Z" fill="#CEDEB9"/>
<path fill-rule="evenodd" clip-rule="evenodd" d="M17.5312 32.7374H24.7765V32.6055H17.5312V32.7374Z" fill="#D2E0BE"/>
<path fill-rule="evenodd" clip-rule="evenodd" d="M17.5312 32.6044H24.7765V32.4727H17.5312V32.6044Z" fill="#D6E2C4"/>
<path fill-rule="evenodd" clip-rule="evenodd" d="M17.5312 32.4735H24.7765V32.3418H17.5312V32.4735Z" fill="#DAE7CB"/>
<path fill-rule="evenodd" clip-rule="evenodd" d="M17.5312 32.3416H24.7765V32.166H17.5312V32.3416Z" fill="#DCE8D0"/>
<path fill-rule="evenodd" clip-rule="evenodd" d="M17.5312 32.1671H24.7765V32.0352H17.5312V32.1671Z" fill="#E2EBD6"/>
<path fill-rule="evenodd" clip-rule="evenodd" d="M17.5312 32.0341H24.7765V31.9023H17.5312V32.0341Z" fill="#E5EBDC"/>
<path fill-rule="evenodd" clip-rule="evenodd" d="M17.5312 31.9013H24.7765V31.7695H17.5312V31.9013Z" fill="#ECEEE0"/>
<path fill-rule="evenodd" clip-rule="evenodd" d="M17.5312 31.7693H24.7765V31.5938H17.5312V31.7693Z" fill="#F0F1E8"/>
<path fill-rule="evenodd" clip-rule="evenodd" d="M17.5312 31.5946H24.7765V31.4629H17.5312V31.5946Z" fill="#F2F2EE"/>
<path fill-rule="evenodd" clip-rule="evenodd" d="M17.5312 31.4635H24.7765V31.332H17.5312V31.4635Z" fill="#F7F8F6"/>
<path fill-rule="evenodd" clip-rule="evenodd" d="M17.5312 31.3309H24.7765V31.1992H17.5312V31.3309Z" fill="white"/>
<path fill-rule="evenodd" clip-rule="evenodd" d="M24.8203 34.2747H24.9523V27.6445H24.8203V34.2747ZM24.9523 34.2747H25.084V27.6445H24.9523V34.2747Z" fill="#F3D23D"/>
<path fill-rule="evenodd" clip-rule="evenodd" d="M25.082 34.2747H25.2133V27.6445H25.082V34.2747Z" fill="#F3D43F"/>
<path fill-rule="evenodd" clip-rule="evenodd" d="M25.2148 34.2747H25.3904V27.6445H25.2148V34.2747Z" fill="#F3D244"/>
<path fill-rule="evenodd" clip-rule="evenodd" d="M25.3906 34.2747H25.5226V27.6445H25.3906V34.2747Z" fill="#F3D44A"/>
<path fill-rule="evenodd" clip-rule="evenodd" d="M25.5195 34.2747H25.6513V27.6445H25.5195V34.2747Z" fill="#F3D44E"/>
<path fill-rule="evenodd" clip-rule="evenodd" d="M25.6523 34.2747H25.7841V27.6445H25.6523V34.2747Z" fill="#F3D552"/>
<path fill-rule="evenodd" clip-rule="evenodd" d="M25.7852 34.2747H25.9607V27.6445H25.7852V34.2747Z" fill="#F2D359"/>
<path fill-rule="evenodd" clip-rule="evenodd" d="M25.9609 34.2747H26.0929V27.6445H25.9609V34.2747Z" fill="#F1D65C"/>
<path fill-rule="evenodd" clip-rule="evenodd" d="M26.0938 34.2747H26.2255V27.6445H26.0938V34.2747Z" fill="#F4D760"/>
<path fill-rule="evenodd" clip-rule="evenodd" d="M26.2227 34.2747H26.3544V27.6445H26.2227V34.2747Z" fill="#F2DA67"/>
<path fill-rule="evenodd" clip-rule="evenodd" d="M26.3555 34.2747H26.4872V27.6445H26.3555V34.2747Z" fill="#F2DA6B"/>
<path fill-rule="evenodd" clip-rule="evenodd" d="M26.4883 34.2747H26.6638V27.6445H26.4883V34.2747Z" fill="#F5DB6F"/>
<path fill-rule="evenodd" clip-rule="evenodd" d="M26.6641 34.2747H26.7955V27.6445H26.6641V34.2747Z" fill="#F6DD72"/>
<path fill-rule="evenodd" clip-rule="evenodd" d="M26.793 34.2747H26.9247V27.6445H26.793V34.2747Z" fill="#F5DC77"/>
<path fill-rule="evenodd" clip-rule="evenodd" d="M26.9258 34.2747H27.0575V27.6445H26.9258V34.2747Z" fill="#F5DC7B"/>
<path fill-rule="evenodd" clip-rule="evenodd" d="M27.0586 34.2747H27.2344V27.6445H27.0586V34.2747Z" fill="#F5DC7F"/>
<path fill-rule="evenodd" clip-rule="evenodd" d="M27.2344 34.2747H27.3661V27.6445H27.2344V34.2747Z" fill="#F5DC80"/>
<path fill-rule="evenodd" clip-rule="evenodd" d="M27.3672 34.2747H27.4989V27.6445H27.3672V34.2747Z" fill="#F5DD84"/>
<path fill-rule="evenodd" clip-rule="evenodd" d="M27.4961 34.2747H27.6278V27.6445H27.4961V34.2747Z" fill="#F5DF88"/>
<path fill-rule="evenodd" clip-rule="evenodd" d="M27.6289 34.2747H27.8045V27.6445H27.6289V34.2747Z" fill="#F5DF8B"/>
<path fill-rule="evenodd" clip-rule="evenodd" d="M27.8047 34.2747H27.9367V27.6445H27.8047V34.2747Z" fill="#F5DF8D"/>
<path fill-rule="evenodd" clip-rule="evenodd" d="M27.9375 34.2747H28.0692V27.6445H27.9375V34.2747Z" fill="#F4E08E"/>
<path fill-rule="evenodd" clip-rule="evenodd" d="M28.0664 34.2747H28.1981V27.6445H28.0664V34.2747Z" fill="#F6E193"/>
<path fill-rule="evenodd" clip-rule="evenodd" d="M28.1992 34.2747H28.3307V27.6445H28.1992V34.2747Z" fill="#F4E297"/>
<path fill-rule="evenodd" clip-rule="evenodd" d="M28.332 34.2747H28.5076V27.6445H28.332V34.2747Z" fill="#F7E69B"/>
<path fill-rule="evenodd" clip-rule="evenodd" d="M28.5078 34.2747H28.6395V27.6445H28.5078V34.2747Z" fill="#F7E69D"/>
<path fill-rule="evenodd" clip-rule="evenodd" d="M28.6406 34.2747H28.7724V27.6445H28.6406V34.2747Z" fill="#F7E6A0"/>
<path fill-rule="evenodd" clip-rule="evenodd" d="M28.7695 34.2747H28.9015V27.6445H28.7695V34.2747Z" fill="#F7E6A4"/>
<path fill-rule="evenodd" clip-rule="evenodd" d="M28.9023 34.2747H29.0779V27.6445H28.9023V34.2747Z" fill="#F7E7A8"/>
<path fill-rule="evenodd" clip-rule="evenodd" d="M29.0781 34.2747H29.2099V27.6445H29.0781V34.2747Z" fill="#F7E7AB"/>
<path fill-rule="evenodd" clip-rule="evenodd" d="M29.2109 34.2747H29.3427V27.6445H29.2109V34.2747Z" fill="#F7E7AD"/>
<path fill-rule="evenodd" clip-rule="evenodd" d="M29.3398 34.2747H29.4718V27.6445H29.3398V34.2747Z" fill="#FAE9B1"/>
<path fill-rule="evenodd" clip-rule="evenodd" d="M29.4727 34.2747H29.6044V27.6445H29.4727V34.2747Z" fill="#F7E7B4"/>
<path fill-rule="evenodd" clip-rule="evenodd" d="M29.6055 34.2747H29.781V27.6445H29.6055V34.2747Z" fill="#F7E8B6"/>
<path fill-rule="evenodd" clip-rule="evenodd" d="M29.7812 34.2747H29.9125V27.6445H29.7812V34.2747Z" fill="#F7E8B8"/>
<path fill-rule="evenodd" clip-rule="evenodd" d="M29.9102 34.2747H30.0421V27.6445H29.9102V34.2747Z" fill="#F7E8BC"/>
<path fill-rule="evenodd" clip-rule="evenodd" d="M30.043 34.2747H30.1747V27.6445H30.043V34.2747Z" fill="#F7E8BF"/>
<path fill-rule="evenodd" clip-rule="evenodd" d="M30.1758 34.2747H30.3513V27.6445H30.1758V34.2747Z" fill="#F7EAC4"/>
<path fill-rule="evenodd" clip-rule="evenodd" d="M30.3516 34.2747H30.4833V27.6445H30.3516V34.2747Z" fill="#F7EBC5"/>
<path fill-rule="evenodd" clip-rule="evenodd" d="M30.4844 34.2747H30.6164V27.6445H30.4844V34.2747Z" fill="#F7EBC7"/>
<path fill-rule="evenodd" clip-rule="evenodd" d="M30.6133 34.2747H30.745V27.6445H30.6133V34.2747Z" fill="#F8EDCC"/>
<path fill-rule="evenodd" clip-rule="evenodd" d="M30.7461 34.2747H30.8778V27.6445H30.7461V34.2747Z" fill="#FBEFD0"/>
<path fill-rule="evenodd" clip-rule="evenodd" d="M30.8789 34.2747H31.0545V27.6445H30.8789V34.2747Z" fill="#F8EFD2"/>
<path fill-rule="evenodd" clip-rule="evenodd" d="M31.0547 34.2747H31.1867V27.6445H31.0547V34.2747Z" fill="#F8F0D6"/>
<path fill-rule="evenodd" clip-rule="evenodd" d="M31.1875 34.2747H31.3187V27.6445H31.1875V34.2747Z" fill="#F8F0D9"/>
<path fill-rule="evenodd" clip-rule="evenodd" d="M31.3164 34.2747H31.4481V27.6445H31.3164V34.2747Z" fill="#F8F0DB"/>
<path fill-rule="evenodd" clip-rule="evenodd" d="M31.4492 34.2747H31.6248V27.6445H31.4492V34.2747Z" fill="#F8F0DF"/>
<path fill-rule="evenodd" clip-rule="evenodd" d="M31.625 34.2747H31.757V27.6445H31.625V34.2747Z" fill="#F9F3E4"/>
<path fill-rule="evenodd" clip-rule="evenodd" d="M31.7578 34.2747H31.8895V27.6445H31.7578V34.2747Z" fill="#F9F3E6"/>
<path fill-rule="evenodd" clip-rule="evenodd" d="M31.8867 34.2747H32.0184V27.6445H31.8867V34.2747Z" fill="#F9F3E9"/>
<path fill-rule="evenodd" clip-rule="evenodd" d="M32.0195 34.2747H32.1951V27.6445H32.0195V34.2747Z" fill="#F9F6EB"/>
<path fill-rule="evenodd" clip-rule="evenodd" d="M32.1953 34.2747H32.3273V27.6445H32.1953V34.2747Z" fill="#F9F6EE"/>
<path fill-rule="evenodd" clip-rule="evenodd" d="M32.3281 34.2747H32.4599V27.6445H32.3281V34.2747Z" fill="#F9F6F0"/>
<path fill-rule="evenodd" clip-rule="evenodd" d="M32.4609 34.2747H32.5927V27.6445H32.4609V34.2747Z" fill="#FAF9F4"/>
<path fill-rule="evenodd" clip-rule="evenodd" d="M32.5898 34.2747H32.7213V27.6445H32.5898V34.2747Z" fill="#FFFFFB"/>
<path fill-rule="evenodd" clip-rule="evenodd" d="M32.7227 34.2747H32.8987V27.6445H32.7227V34.2747Z" fill="white"/>
<path fill-rule="evenodd" clip-rule="evenodd" d="M11.6016 22.5506H17.9244V22.375H11.733L11.6016 22.5506Z" fill="#769FD2"/>
<path fill-rule="evenodd" clip-rule="evenodd" d="M11.4688 22.6825H17.9236V22.5508H11.6007L11.4688 22.6825Z" fill="#76A1D3"/>
<path fill-rule="evenodd" clip-rule="evenodd" d="M11.3398 22.8134H17.9264V22.6816H11.4716L11.3398 22.8134Z" fill="#7AA2D3"/>
<path fill-rule="evenodd" clip-rule="evenodd" d="M11.207 22.9442H17.9251V22.8125H11.3385L11.207 22.9442Z" fill="#7CA3D3"/>
<path fill-rule="evenodd" clip-rule="evenodd" d="M11.0742 23.1211H17.9242V22.9453H11.2062L11.0742 23.1211Z" fill="#80A4D1"/>
<path fill-rule="evenodd" clip-rule="evenodd" d="M10.9414 23.2526H17.9232V23.1211H11.0731L10.9414 23.2526Z" fill="#80A4D1"/>
<path fill-rule="evenodd" clip-rule="evenodd" d="M10.8125 23.3839H17.926V23.252H10.9442L10.8125 23.3839Z" fill="#80A3D0"/>
<path fill-rule="evenodd" clip-rule="evenodd" d="M10.6784 23.5143H17.9236V23.3828H10.8101L10.6784 23.5143ZM10.5469 23.6901H17.9236V23.5143H10.6784L10.5469 23.6901Z" fill="#84A6D1"/>
<path fill-rule="evenodd" clip-rule="evenodd" d="M10.418 23.8231H17.9264V23.6914H10.5497L10.418 23.8231Z" fill="#88A9D2"/>
<path fill-rule="evenodd" clip-rule="evenodd" d="M10.2852 23.9557H17.9253V23.8242H10.4169L10.2852 23.9557Z" fill="#8AABD5"/>
<path fill-rule="evenodd" clip-rule="evenodd" d="M10.1523 24.0849H17.9245V23.9531H10.2843L10.1523 24.0849Z" fill="#8CACD5"/>
<path fill-rule="evenodd" clip-rule="evenodd" d="M10.0664 24.2179H17.9262V24.0859H10.1541L10.0664 24.2179Z" fill="#8DAED9"/>
<path fill-rule="evenodd" clip-rule="evenodd" d="M9.93359 24.3943H17.9251V24.2188H10.0653L9.93359 24.3943Z" fill="#8FAFD9"/>
<path fill-rule="evenodd" clip-rule="evenodd" d="M9.80078 24.5263H17.924V24.3945H9.93251L9.80078 24.5263Z" fill="#91AFD7"/>
<path fill-rule="evenodd" clip-rule="evenodd" d="M9.67188 24.6571H17.9269V24.5254H9.80361L9.67188 24.6571Z" fill="#93B0D9"/>
<path fill-rule="evenodd" clip-rule="evenodd" d="M9.53906 24.7882H17.9258V24.6562H9.67079L9.53906 24.7882Z" fill="#96B4D9"/>
<path fill-rule="evenodd" clip-rule="evenodd" d="M9.40625 24.9646H17.9247V24.7891H9.53798L9.40625 24.9646Z" fill="#9AB5DA"/>
<path fill-rule="evenodd" clip-rule="evenodd" d="M9.27344 25.0966H17.9236V24.9648H9.40517L9.27344 25.0966Z" fill="#9BB6DA"/>
<path fill-rule="evenodd" clip-rule="evenodd" d="M9.14453 25.2294H17.9265V25.0977H9.27626L9.14453 25.2294Z" fill="#9DB6DA"/>
<path fill-rule="evenodd" clip-rule="evenodd" d="M9.01172 25.36H17.9254V25.2285H9.14345L9.01172 25.36Z" fill="#9FB7DA"/>
<path fill-rule="evenodd" clip-rule="evenodd" d="M8.92188 25.5349H17.9234V25.3594H9.00978L8.92188 25.4911V25.5349Z" fill="#A2BBDD"/>
<path fill-rule="evenodd" clip-rule="evenodd" d="M8.92188 25.6669H17.9234V25.5352H8.92188V25.6669Z" fill="#A3BADC"/>
<path fill-rule="evenodd" clip-rule="evenodd" d="M8.92188 25.7997H17.9234V25.668H8.92188V25.7997Z" fill="#A4BDDE"/>
<path fill-rule="evenodd" clip-rule="evenodd" d="M8.92188 25.9308H17.9234V25.7988H8.92188V25.9308Z" fill="#A8BDDD"/>
<path fill-rule="evenodd" clip-rule="evenodd" d="M8.92188 26.0614H17.9234V25.9297H8.92188V26.0614Z" fill="#A8BFDE"/>
<path fill-rule="evenodd" clip-rule="evenodd" d="M8.92188 26.2381H17.9234V26.0625H8.92188V26.2381Z" fill="#AAC0DE"/>
<path fill-rule="evenodd" clip-rule="evenodd" d="M8.92188 26.37H17.9234V26.2383H8.92188V26.37ZM8.92188 26.502H17.9234V26.37H8.92188V26.502Z" fill="#AEC3E2"/>
<path fill-rule="evenodd" clip-rule="evenodd" d="M8.92188 26.6332H17.9234V26.502H8.92188V26.6332Z" fill="#B1C5E3"/>
<path fill-rule="evenodd" clip-rule="evenodd" d="M8.92188 26.8089H17.9234V26.6328H8.92188V26.8089Z" fill="#B3C6E4"/>
<path fill-rule="evenodd" clip-rule="evenodd" d="M8.92188 26.9403H17.9234V26.8086H8.92188V26.9403Z" fill="#B5C9E5"/>
<path fill-rule="evenodd" clip-rule="evenodd" d="M8.92188 27.0729H17.9234V26.9414H8.92188V27.0729Z" fill="#B7C9E5"/>
<path fill-rule="evenodd" clip-rule="evenodd" d="M8.92188 27.204H17.9234V27.0723H8.92188V27.204Z" fill="#B9C9E4"/>
<path fill-rule="evenodd" clip-rule="evenodd" d="M8.92188 27.3787H17.9234V27.2031H8.92188V27.3787Z" fill="#BBCBE3"/>
<path fill-rule="evenodd" clip-rule="evenodd" d="M8.92188 27.5115H17.9234V27.3359H8.92188V27.5115Z" fill="#BDCCE3"/>
<path fill-rule="evenodd" clip-rule="evenodd" d="M8.92188 27.6437H17.9234V27.5117H8.92188V27.6437Z" fill="#C0CEE5"/>
<path fill-rule="evenodd" clip-rule="evenodd" d="M8.92188 27.7763H17.9234V27.6445H8.92188V27.7763ZM8.92188 27.908H17.9234V27.7763H8.92188V27.908Z" fill="#C4D0E5"/>
<path fill-rule="evenodd" clip-rule="evenodd" d="M8.92188 28.0818H17.9234V27.9062H8.92188V28.0818Z" fill="#C6D3E6"/>
<path fill-rule="evenodd" clip-rule="evenodd" d="M8.92188 28.214H17.9234V28.082H8.92188V28.214ZM8.92188 28.3452H17.9234V28.214H8.92188V28.3452Z" fill="#C9D5E8"/>
<path fill-rule="evenodd" clip-rule="evenodd" d="M8.92188 28.4774H17.9234V28.3457H8.92188V28.4774Z" fill="#CCD8E9"/>
<path fill-rule="evenodd" clip-rule="evenodd" d="M8.92188 28.6521H17.9234V28.4766H8.92188V28.6521Z" fill="#CDD7EB"/>
<path fill-rule="evenodd" clip-rule="evenodd" d="M8.92188 28.7843H17.9234V28.6523H8.92188V28.7843Z" fill="#D0DCED"/>
<path fill-rule="evenodd" clip-rule="evenodd" d="M8.92188 28.9169H17.9234V28.7852H8.92188V28.9169Z" fill="#D2DDED"/>
<path fill-rule="evenodd" clip-rule="evenodd" d="M8.92188 29.0477H17.9234V28.916H8.92188V29.0477Z" fill="#D4DEEE"/>
<path fill-rule="evenodd" clip-rule="evenodd" d="M8.92188 29.1789H17.9234V29.0469H8.92188V29.1789Z" fill="#D6DFF1"/>
<path fill-rule="evenodd" clip-rule="evenodd" d="M8.92188 29.3552H17.9234V29.1797H8.92188V29.3552Z" fill="#D7E0EF"/>
<path fill-rule="evenodd" clip-rule="evenodd" d="M8.92188 29.4872H17.9234V29.3555H8.92188V29.4872Z" fill="#DBE2ED"/>
<path fill-rule="evenodd" clip-rule="evenodd" d="M8.92188 29.62H17.9234V29.4883H8.92188V29.62Z" fill="#DEE3ED"/>
<path fill-rule="evenodd" clip-rule="evenodd" d="M8.92188 29.7506H17.9234V29.6191H8.92188V29.7506Z" fill="#E0E6EF"/>
<path fill-rule="evenodd" clip-rule="evenodd" d="M8.92188 29.9261H17.9234V29.75H8.92188V29.9261ZM8.92188 30.0573H17.9234V29.9261H8.92188V30.0573Z" fill="#E2E7EF"/>
<path fill-rule="evenodd" clip-rule="evenodd" d="M8.92188 30.1903H17.9234V30.0586H8.92188V30.1903Z" fill="#E5E8EF"/>
<path fill-rule="evenodd" clip-rule="evenodd" d="M8.92188 30.3214H17.9234V30.1895H8.92188V30.3214Z" fill="#E7EBF0"/>
<path fill-rule="evenodd" clip-rule="evenodd" d="M8.92188 30.4959H17.9234V30.3203H8.92188V30.4959Z" fill="#EAECF1"/>
<path fill-rule="evenodd" clip-rule="evenodd" d="M8.92188 30.6278H17.9234V30.4961H8.92188V30.6278ZM8.92188 30.7596H17.9234V30.6278H8.92188V30.7596Z" fill="#ECEFF2"/>
<path fill-rule="evenodd" clip-rule="evenodd" d="M8.92188 30.8934H17.9234V30.7617H8.92188V30.8934ZM8.92188 31.0254H17.9234V30.8934H8.92188V31.0254Z" fill="#F2F3F4"/>
<path fill-rule="evenodd" clip-rule="evenodd" d="M8.92188 31.199H17.9234V31.0234H8.92188V31.199Z" fill="#F4F4F7"/>
<path fill-rule="evenodd" clip-rule="evenodd" d="M8.92188 31.3309H17.9234V31.1992H8.92188V31.3309Z" fill="#F7F8F8"/>
<path fill-rule="evenodd" clip-rule="evenodd" d="M8.92188 31.4635H17.9234V31.332H8.92188V31.4635Z" fill="#FBFDFF"/>
<path fill-rule="evenodd" clip-rule="evenodd" d="M8.92188 31.5946H17.9234V31.4629H8.92188V31.5946Z" fill="white"/>
<path fill-rule="evenodd" clip-rule="evenodd" d="M33.207 22.5506H39.8372V22.375H33.207V22.5506Z" fill="#DA884E"/>
<path fill-rule="evenodd" clip-rule="evenodd" d="M33.207 22.6825H39.8372V22.5508H33.207V22.6825Z" fill="#DB8A51"/>
<path fill-rule="evenodd" clip-rule="evenodd" d="M33.207 22.8134H39.8372V22.6816H33.207V22.8134Z" fill="#DA8F56"/>
<path fill-rule="evenodd" clip-rule="evenodd" d="M33.207 22.9442H39.8372V22.8125H33.207V22.9442Z" fill="#DB925D"/>
<path fill-rule="evenodd" clip-rule="evenodd" d="M33.207 23.1211H39.8372V22.9453H33.207V23.1211Z" fill="#DB9461"/>
<path fill-rule="evenodd" clip-rule="evenodd" d="M33.207 23.2526H39.8372V23.1211H33.207V23.2526Z" fill="#DC9865"/>
<path fill-rule="evenodd" clip-rule="evenodd" d="M33.207 23.3839H39.8372V23.252H33.207V23.3839Z" fill="#DF9B68"/>
<path fill-rule="evenodd" clip-rule="evenodd" d="M33.207 23.5143H39.8372V23.3828H33.207V23.5143Z" fill="#E39D6D"/>
<path fill-rule="evenodd" clip-rule="evenodd" d="M33.207 23.6914H39.8372V23.5156H33.207V23.6914Z" fill="#E09F73"/>
<path fill-rule="evenodd" clip-rule="evenodd" d="M33.207 23.8231H39.8372V23.6914H33.207V23.8231Z" fill="#E2A475"/>
<path fill-rule="evenodd" clip-rule="evenodd" d="M33.207 23.9557H39.8372V23.8242H33.207V23.9557Z" fill="#E0A779"/>
<path fill-rule="evenodd" clip-rule="evenodd" d="M33.207 24.0849H39.8372V23.9531H33.207V24.0849Z" fill="#E1A97B"/>
<path fill-rule="evenodd" clip-rule="evenodd" d="M33.207 24.2179H39.8372V24.0859H33.207V24.2179Z" fill="#E1AB80"/>
<path fill-rule="evenodd" clip-rule="evenodd" d="M33.207 24.3943H39.8372V24.2188H33.207V24.3943Z" fill="#E3AF86"/>
<path fill-rule="evenodd" clip-rule="evenodd" d="M33.207 24.5263H39.8372V24.3945H33.207V24.5263Z" fill="#E3B188"/>
<path fill-rule="evenodd" clip-rule="evenodd" d="M33.207 24.6571H39.8372V24.5254H33.207V24.6571Z" fill="#E6B48D"/>
<path fill-rule="evenodd" clip-rule="evenodd" d="M33.207 24.7882H39.8372V24.6562H33.207V24.7882Z" fill="#E7B892"/>
<path fill-rule="evenodd" clip-rule="evenodd" d="M33.207 24.9646H39.8372V24.7891H33.207V24.9646Z" fill="#E9BE96"/>
<path fill-rule="evenodd" clip-rule="evenodd" d="M33.207 25.0966H39.8372V24.9648H33.207V25.0966Z" fill="#E7C09B"/>
<path fill-rule="evenodd" clip-rule="evenodd" d="M33.207 25.2294H39.8372V25.0977H33.207V25.2294Z" fill="#E8C29E"/>
<path fill-rule="evenodd" clip-rule="evenodd" d="M33.207 25.36H39.8372V25.2285H33.207V25.36Z" fill="#E8C4A2"/>
<path fill-rule="evenodd" clip-rule="evenodd" d="M33.207 25.5349H39.8372V25.3594H33.207V25.5349Z" fill="#EAC8A8"/>
<path fill-rule="evenodd" clip-rule="evenodd" d="M33.207 25.6669H39.8372V25.5352H33.207V25.6669Z" fill="#EBCCAD"/>
<path fill-rule="evenodd" clip-rule="evenodd" d="M33.207 25.7997H39.8372V25.668H33.207V25.7997Z" fill="#EBCEB0"/>
<path fill-rule="evenodd" clip-rule="evenodd" d="M33.207 25.9308H39.8372V25.7988H33.207V25.9308Z" fill="#ECD0B4"/>
<path fill-rule="evenodd" clip-rule="evenodd" d="M33.207 26.0614H39.8372V25.9297H33.207V26.0614Z" fill="#EFD3B7"/>
<path fill-rule="evenodd" clip-rule="evenodd" d="M33.207 26.2381H39.8372V26.0625H33.207V26.2381Z" fill="#F3D7BD"/>
<path fill-rule="evenodd" clip-rule="evenodd" d="M33.207 26.37H39.8372V26.2383H33.207V26.37Z" fill="#F4D9C1"/>
<path fill-rule="evenodd" clip-rule="evenodd" d="M33.207 26.5031H39.8372V26.3711H33.207V26.5031Z" fill="#F2DCC6"/>
<path fill-rule="evenodd" clip-rule="evenodd" d="M33.207 26.6332H39.8372V26.502H33.207V26.6332Z" fill="#F0DFCB"/>
<path fill-rule="evenodd" clip-rule="evenodd" d="M33.207 26.8089H39.8372V26.6328H33.207V26.8089Z" fill="#F1E1CE"/>
<path fill-rule="evenodd" clip-rule="evenodd" d="M33.207 26.9403H39.8372V26.8086H33.207V26.9403Z" fill="#F2E5D6"/>
<path fill-rule="evenodd" clip-rule="evenodd" d="M33.207 27.0729H39.8372V26.9414H33.207V27.0729Z" fill="#F3E7DA"/>
<path fill-rule="evenodd" clip-rule="evenodd" d="M33.207 27.204H39.8372V27.0723H33.207V27.204Z" fill="#F3E9DF"/>
<path fill-rule="evenodd" clip-rule="evenodd" d="M33.207 27.3787H39.8372V27.2031H33.207V27.3787Z" fill="#F4EEE3"/>
<path fill-rule="evenodd" clip-rule="evenodd" d="M33.207 27.5115H39.8372V27.3359H33.207V27.5115Z" fill="#F4EEE7"/>
<path fill-rule="evenodd" clip-rule="evenodd" d="M33.207 27.6437H39.8372V27.5117H33.207V27.6437Z" fill="#F5F0EA"/>
<path fill-rule="evenodd" clip-rule="evenodd" d="M33.207 27.7763H39.8372V27.6445H33.207V27.7763Z" fill="#F9F6F0"/>
<path fill-rule="evenodd" clip-rule="evenodd" d="M33.207 27.9071H39.8372V27.7754H33.207V27.9071Z" fill="#F9F6F4"/>
<path fill-rule="evenodd" clip-rule="evenodd" d="M33.207 28.0818H39.8372V27.9062H33.207V28.0818Z" fill="white"/>
<path fill-rule="evenodd" clip-rule="evenodd" d="M33.2058 31.4184C32.3275 33.3946 31.1417 34.2724 29.2536 34.2724C27.7167 34.2724 26.224 33.3946 25.5654 32.077C25.1261 31.1549 24.9506 30.3645 24.9506 28.6963H35.5324C35.5324 26.7639 35.313 25.5786 34.742 24.3492C33.7322 22.1098 31.7124 20.8363 29.2095 20.8363C25.2135 20.8363 22.4474 23.9538 22.4474 28.5646C22.4474 33.0873 25.1259 36.1169 29.1214 36.1169C32.0633 36.1169 34.3468 34.5361 35.2692 31.8576L33.2058 31.4184ZM25.0825 26.9836C25.2138 25.5784 25.4775 24.8756 26.0923 24.0852C26.9265 23.1193 27.9804 22.5485 29.2536 22.5485C31.5809 22.5485 32.9859 24.2172 33.0741 26.9836H25.0825ZM46.0273 34.1847C45.2369 34.3165 44.7977 34.3603 44.2705 34.3603C42.734 34.3603 41.9431 33.6137 41.9431 32.0768V17.3672L39.704 17.4551V31.7257C39.704 34.6676 41.1092 36.1604 43.8755 36.1604C44.5342 36.1604 45.017 36.1166 46.0273 35.9849V34.1847ZM1.01953 33.7454C1.01953 32.4722 2.02955 31.4619 3.30279 31.4619C4.57603 31.4619 5.58605 32.4722 5.58605 33.7454C5.58605 35.0187 4.57603 36.029 3.30279 36.029C2.02955 36.029 1.01953 35.0189 1.01953 33.7454ZM19.0226 36.1166V27.1156C19.0226 25.0514 18.8468 23.9538 18.5398 23.2513C17.7494 21.6267 16.1686 20.6166 14.2806 20.6166C12.3046 20.6166 11.1193 21.3632 9.62614 23.6903V21.0118H7.56227V36.1166H9.8017V27.5541C9.8017 24.7001 11.514 22.5485 13.8851 22.5485C15.817 22.5485 16.8709 23.822 16.8709 26.1932V36.1166H19.0226Z" fill="#2B948F"/>
<path fill-rule="evenodd" clip-rule="evenodd" d="M29.1659 20.837H45.5439V22.5495H29.1659V20.837ZM18.8032 34.4051H29.2536V36.0738H18.8032V34.4051ZM7.07914 18.0709V11.9672H5.93739L4.13723 16.8412L2.29299 11.9672H1.19531V18.0709H1.81014V12.7137L3.82994 18.0709H4.35686L6.33283 12.7137V18.0709H7.07914ZM8.57227 18.0709H9.27475V13.5482H8.57227V18.0709ZM8.57227 12.7137H9.31883V11.9672H8.57227V12.7137ZM13.3582 16.4901C13.2264 17.2367 12.8312 17.6316 12.2605 17.6316C11.5139 17.6316 11.0749 16.9291 11.0749 15.7874C11.0749 14.6897 11.5578 13.9872 12.3046 13.9872C12.8753 13.9872 13.2705 14.3824 13.3582 15.1287L14.0168 14.997C13.8413 13.987 13.2264 13.4162 12.3046 13.4162C11.119 13.4162 10.3286 14.3822 10.3286 15.7874C10.3286 17.2364 11.0752 18.1585 12.2605 18.1585C12.7436 18.1585 13.1388 18.0268 13.4902 17.6754C13.7536 17.412 13.8853 17.1485 14.0171 16.5778L13.3582 16.4901ZM15.6855 18.0709V15.6559C15.7293 14.7338 16.388 14.0313 17.2225 14.1189V13.4165H16.959C16.6515 13.4165 16.3003 13.5923 16.0807 13.8117C15.949 14.0313 15.8611 14.163 15.6417 14.602V13.5484H15.0269V18.0711L15.6855 18.0709ZM19.5934 13.4162C18.9347 13.4162 18.4078 13.6797 18.0126 14.2066C17.7053 14.6018 17.5297 15.1287 17.5297 15.7874C17.5297 16.446 17.6615 16.973 17.9688 17.412C18.3201 17.9389 18.8032 18.1585 19.5057 18.1585C20.7354 18.1585 21.5696 17.1926 21.5696 15.8312C21.5693 14.4262 20.7792 13.4162 19.5934 13.4162ZM19.5495 13.9872C19.9009 13.9872 20.252 14.2066 20.4717 14.4701C20.6913 14.7776 20.823 15.2166 20.823 15.7874C20.823 16.9289 20.3402 17.6316 19.5495 17.6316C18.7592 17.6316 18.2761 16.9291 18.2761 15.7874C18.2761 15.2605 18.4078 14.7776 18.5833 14.5139C18.8032 14.2066 19.1982 13.9872 19.5495 13.9872ZM22.0524 16.8851C22.1403 17.2802 22.2718 17.4999 22.5355 17.6754C22.8867 18.0268 23.4136 18.1585 24.0722 18.1585C25.1699 18.1585 25.9165 17.6316 25.9165 16.7974C25.9165 16.0508 25.4772 15.6118 24.5551 15.4801L23.677 15.3043C23.1501 15.2164 22.9305 14.997 22.9305 14.6897C22.9305 14.2507 23.3257 13.9872 23.9405 13.9872C24.4674 13.9872 24.8626 14.2066 25.0823 14.7338L25.7409 14.5582C25.4772 13.8117 24.8626 13.4165 23.9405 13.4165C22.8867 13.4165 22.228 13.9434 22.228 14.7338C22.228 15.3924 22.667 15.8755 23.4574 16.007L24.4234 16.1828C24.9062 16.2707 25.1699 16.5342 25.1699 16.8853C25.1699 17.3243 24.7306 17.6319 24.1161 17.6319C23.677 17.6319 23.2818 17.5001 23.0184 17.2807C22.8867 17.149 22.7987 17.017 22.7111 16.7538L22.0524 16.8851ZM28.6831 13.4162C28.0242 13.4162 27.4973 13.6797 27.0582 14.2066C26.7509 14.6018 26.5754 15.1287 26.5754 15.7874C26.5754 16.446 26.7509 16.973 27.0147 17.412C27.4096 17.9389 27.8924 18.1585 28.5516 18.1585C29.7813 18.1585 30.6152 17.1926 30.6152 15.8312C30.615 14.4262 29.8684 13.4162 28.6831 13.4162ZM28.5949 13.9872C28.9904 13.9872 29.3415 14.2066 29.5609 14.4701C29.7808 14.7776 29.8682 15.2166 29.8682 15.7874C29.8682 16.9289 29.3853 17.6316 28.5949 17.6316C27.8045 17.6316 27.3653 16.9291 27.3653 15.7874C27.3653 15.2605 27.4534 14.7776 27.6726 14.5139C27.8484 14.2066 28.2438 13.9872 28.5949 13.9872ZM33.6007 13.5482H32.503C32.503 13.0653 32.503 13.0213 32.5912 12.8457C32.6788 12.5384 32.9861 12.4067 33.4254 12.4067C33.601 12.4067 33.6891 12.4067 33.8647 12.4505V11.8798C33.5574 11.8359 33.3818 11.8359 33.206 11.8359C32.635 11.8359 32.1522 12.0994 31.9764 12.5384C31.8882 12.8019 31.8882 12.9774 31.8446 13.5484H31.0542V14.1192H31.8446V18.0711H32.5033V14.1192H33.601V13.5482H33.6007ZM36.8063 17.5878C36.5865 17.6316 36.4109 17.6316 36.2792 17.6316C35.7963 17.6316 35.5326 17.4122 35.5326 16.9291V14.1189H36.5429V13.5482H35.5326V12.3626L34.874 12.4064L34.8301 13.5479H34.0397V14.1187H34.8301V16.8412C34.8301 17.7193 35.2694 18.2024 36.1472 18.2024C36.3228 18.2024 36.4988 18.1585 36.8061 18.1585L36.8063 17.5878ZM46.3348 21.7591V20.9249H46.5978V20.837H45.9394V20.9249H46.2029V21.7591H46.3348ZM47.6081 21.7591V20.837H47.3882L47.125 21.5836L46.8615 20.837H46.6859V21.7591H46.8177V20.9687L47.125 21.7591H47.1688L47.4763 20.9687V21.7591H47.6081Z" fill="#2B948F"/>
</svg>
