<svg width="65" height="65" viewBox="0 0 65 65" fill="none" xmlns="http://www.w3.org/2000/svg">
<path d="M8.66699 29.6538C8.66699 28.6329 9.49477 27.8077 10.5188 27.8077H20.4022C21.7429 25.1345 24.3337 22.6735 26.5263 21.1172L29.1151 12.5086C29.3503 11.7277 30.0725 11.1923 30.8892 11.1923C33.6318 11.1923 37.6022 13.8618 37.6022 18.6914C37.6022 21.0434 35.8791 26.5568 35.4439 27.9949C35.4532 31.2109 34.8374 35.5523 29.517 36.9738C28.5392 37.236 27.517 36.6618 27.2485 35.6686C26.9818 34.6846 27.5688 33.6711 28.5577 33.4071C30.667 32.8422 31.8763 31.7511 31.8151 27.8317C31.8114 27.6397 31.8411 27.4458 31.8966 27.2594C32.6707 24.7486 33.8985 20.1997 33.8985 18.6877C33.8985 16.9597 33.0003 15.876 32.1337 15.324L29.8855 22.7954C29.7614 23.2108 29.4948 23.5652 29.1355 23.8052C26.9114 25.2729 24.1633 27.9129 23.3874 30.2335C23.1337 30.9923 22.4281 31.5 21.63 31.5H10.5188C9.49477 31.5 8.66699 30.6748 8.66699 29.6538ZM20.5355 48.1154H10.5188C9.49477 48.1154 8.66699 47.2902 8.66699 46.2692C8.66699 45.2483 9.49477 44.4231 10.5188 44.4231H21.63C22.3633 44.4231 23.03 44.8551 23.3263 45.5271C24.4411 48.06 28.3892 49.1252 31.5077 49.5757C32.5188 49.7197 33.2207 50.6575 33.0744 51.6674C32.9263 52.7049 31.9448 53.3825 30.9763 53.2292C25.7818 52.4797 22.28 50.7628 20.5355 48.1154ZM54.0374 27.8077H35.999C34.9749 27.8077 35.4575 28.6329 35.4575 29.6538C35.4575 30.6748 34.9749 31.5 35.999 31.5H54.0374C54.5466 31.5 54.9633 31.9154 54.9633 32.4231C54.9633 32.9308 54.5466 33.3462 54.0374 33.3462C51.3985 33.3462 41.0744 33.3462 41.0744 33.3462C38.5207 33.3462 36.4448 35.4157 36.4448 37.9615C36.4448 39.0046 36.8059 39.9572 37.3929 40.7308C36.8059 41.5043 36.4448 42.4569 36.4448 43.5C36.4448 44.0815 36.5651 44.6317 36.7614 45.1431C35.4633 45.9628 34.5929 47.3954 34.5929 49.0385C34.5929 51.5843 36.6688 53.6538 39.2225 53.6538H44.7781C47.3318 53.6538 49.4077 51.5843 49.4077 49.0385C49.4077 48.4569 49.2874 47.9068 49.0911 47.3954C50.3892 46.5757 51.2596 45.1431 51.2596 43.5C51.2596 42.4569 50.8985 41.5043 50.3114 40.7308C50.8985 39.9572 51.2596 39.0046 51.2596 37.9615C51.2596 37.6458 51.2262 37.3375 51.1651 37.0385H54.0374C56.5911 37.0385 58.667 34.9689 58.667 32.4231C58.667 29.8772 56.5911 27.8077 54.0374 27.8077ZM44.7781 49.9615H39.2225C38.7133 49.9615 38.2966 49.5462 38.2966 49.0385C38.2966 48.5308 38.7133 48.1154 39.2225 48.1154C39.4985 48.1154 45.0466 48.1154 44.7781 48.1154C45.2874 48.1154 45.704 48.5308 45.704 49.0385C45.704 49.5462 45.2874 49.9615 44.7781 49.9615ZM46.63 44.4231C46.354 44.4231 40.8059 44.4231 41.0744 44.4231C40.5651 44.4231 40.1485 44.0077 40.1485 43.5C40.1485 42.9923 40.5651 42.5769 41.0744 42.5769H46.63C47.1392 42.5769 47.5559 42.9923 47.5559 43.5C47.5559 44.0077 47.1392 44.4231 46.63 44.4231ZM46.63 38.8846H41.0744C40.5651 38.8846 40.1485 38.4692 40.1485 37.9615C40.1485 37.4538 40.5651 37.0385 41.0744 37.0385C41.7003 37.0385 46.9077 37.0385 46.63 37.0385C47.1392 37.0385 47.5559 37.4538 47.5559 37.9615C47.5559 38.4692 47.1392 38.8846 46.63 38.8846ZM40.1485 13.0385V9.34615C40.1485 8.32523 40.9762 7.5 42.0003 7.5C43.0244 7.5 43.8522 8.32523 43.8522 9.34615V13.0385C43.8522 14.0594 43.0244 14.8846 42.0003 14.8846C40.9762 14.8846 40.1485 14.0594 40.1485 13.0385ZM47.2374 17.0483C46.5133 16.3265 46.5133 15.1597 47.2374 14.4378L49.8577 11.8255C50.5818 11.1037 51.7522 11.1037 52.4762 11.8255C53.2003 12.5474 53.2003 13.7142 52.4762 14.436L49.8559 17.0483C49.1337 17.7702 47.9614 17.7683 47.2374 17.0483ZM58.667 22.2692C58.667 23.2902 57.8392 24.1154 56.8151 24.1154H53.1114C52.0874 24.1154 51.2596 23.2902 51.2596 22.2692C51.2596 21.2483 52.0874 20.4231 53.1114 20.4231H56.8151C57.8392 20.4231 58.667 21.2483 58.667 22.2692Z" fill="#2B948F"/>
</svg>
