<svg width="64" height="64" viewBox="0 0 64 64" fill="none" xmlns="http://www.w3.org/2000/svg">
<path d="M0 8C0 3.58172 3.58172 0 8 0H56C60.4183 0 64 3.58172 64 8V56C64 60.4183 60.4183 64 56 64H8C3.58172 64 0 60.4183 0 56V8Z" fill="#F7F7F7"/>
<g clip-path="url(#clip0_947_7482)">
<path d="M32 37C31.8358 37.0002 31.6732 36.9679 31.5216 36.905C31.3699 36.8422 31.2322 36.75 31.1163 36.6338L27.3663 32.8838C27.1319 32.6493 27.0003 32.3315 27.0003 32C27.0003 31.6685 27.1319 31.3507 27.3663 31.1163L31.1163 27.3663C31.3507 27.1319 31.6685 27.0003 32 27.0003C32.3315 27.0003 32.6493 27.1319 32.8838 27.3663L36.6338 31.1163C36.8681 31.3507 36.9997 31.6685 36.9997 32C36.9997 32.3315 36.8681 32.6493 36.6338 32.8838L32.8838 36.6338C32.7678 36.75 32.6301 36.8422 32.4784 36.905C32.3268 36.9679 32.1642 37.0002 32 37ZM28.8966 32L32 34.7586L34.7586 32L32 29.069L28.8966 32ZM48.25 23.25H38.25C37.9185 23.25 37.6005 23.1183 37.3661 22.8839C37.1317 22.6495 37 22.3315 37 22V15.75C37 15.4185 37.1317 15.1005 37.3661 14.8661C37.6005 14.6317 37.9185 14.5 38.25 14.5H48.25C48.5815 14.5 48.8995 14.6317 49.1339 14.8661C49.3683 15.1005 49.5 15.4185 49.5 15.75V22C49.5 22.3315 49.3683 22.6495 49.1339 22.8839C48.8995 23.1183 48.5815 23.25 48.25 23.25ZM38.25 22H48.0345V15.75H38.25V22ZM44.5 25.75H42C41.6685 25.75 41.3505 25.6183 41.1161 25.3839C40.8817 25.1495 40.75 24.8315 40.75 24.5C40.75 24.069 40.7495 24.069 41.1161 24.069C41.4828 24.069 41.6685 24.069 42 24.069H44.5C44.8315 24.069 45.4483 24.069 45.75 24.069C45.75 24.4138 45.75 24.1685 45.75 24.5C45.75 24.8315 45.6183 25.1495 45.3839 25.3839C45.1495 25.6183 44.8315 25.75 44.5 25.75ZM25.75 47H15.75C15.4185 47 15.1005 46.8683 14.8661 46.6339C14.6317 46.3995 14.5 46.0815 14.5 45.75V39.5C14.5 39.1685 14.6317 38.8505 14.8661 38.6161C15.1005 38.3817 15.4185 38.25 15.75 38.25H25.75C26.0815 38.25 26.3995 38.3817 26.6339 38.6161C26.8683 38.8505 27 39.1685 27 39.5V45.75C27 46.0815 26.8683 46.3995 26.6339 46.6339C26.3995 46.8683 26.0815 47 25.75 47ZM15.75 45.75H25.75V39.5H15.75V45.75Z" fill="#2B948F"/>
<path d="M19.4569 49.2414H21.9569C22.2884 49.2414 22.6064 49.1097 22.8408 48.8753C23.0752 48.6408 23.2069 48.3229 23.2069 47.9914V47.5603H21.9569H19.4569H18.573C18.2064 47.5603 18.2069 47.5603 18.2069 47.9914C18.2069 48.3229 18.3386 48.6408 18.573 48.8753C18.8074 49.1097 19.1254 49.2414 19.4569 49.2414Z" fill="#2B948F"/>
<path d="M20.75 38.0341C20.4185 38.0341 20.1005 37.9237 19.8661 37.6893C19.6317 37.4549 19.5 36.9864 19.5 36.6548V31.9997C19.5 31.6681 19.6317 31.3502 19.8661 31.1158C20.1005 30.8814 20.4185 30.7497 20.75 30.7497H28.25C28.5815 30.7497 28.8995 30.8814 29.1339 31.1158C29.3683 31.3502 28.7241 31.6681 28.7241 31.9997C28.7241 32.3312 29.4775 32.525 29.2414 32.6893C28.905 32.9235 28.5815 32.6893 28.25 32.6893H20.9655V35.7497C20.9655 36.0812 21.0275 37.7997 20.7931 38.0341C20.5587 38.2686 20.9655 37.8617 20.75 38.0341ZM43.25 33.2497H35.75C35.4185 33.2497 35.1005 33.118 34.8661 32.8835C34.6317 32.6491 35.1034 32.3312 35.1034 31.9997C35.1034 31.6681 34.5 31.6548 34.8661 31.6548C35.2759 31.6548 35.4185 31.6548 35.75 31.6548H42.8621V28.2497C42.8621 27.9181 42.8621 27.3232 42.8621 26.9997C42.8621 26.4824 42.9185 26.4824 43.25 26.4824C43.5815 26.4824 43.8995 26.5928 44.1339 26.8272C44.3683 27.0617 44.5 27.3578 44.5 27.6893V31.9997C44.5 32.3312 44.3683 32.6491 44.1339 32.8835C43.8995 33.118 43.5815 33.2497 43.25 33.2497Z" fill="#2B948F"/>
</g>
<defs>
<clipPath id="clip0_947_7482">
<rect width="40" height="40" fill="white" transform="translate(12 12)"/>
</clipPath>
</defs>
</svg>
