<svg width="48" height="48" viewBox="0 0 48 48" fill="none" xmlns="http://www.w3.org/2000/svg">
<path d="M25.6856 22.0312C27.3731 24 25.2168 25.7812 25.2168 25.7812C25.2168 25.7812 29.6231 23.5312 27.5606 20.7188C25.4981 17.9062 24.2793 16.7812 32.0606 12.2812C32.0606 12.1875 19.7793 15.2812 25.6856 22.0312ZM27.5606 4.96875C27.5606 4.96875 31.3106 8.71875 23.9981 14.3438C18.1856 18.9375 22.6856 21.5625 23.9981 24.5625C20.6231 21.4688 18.0918 18.8438 19.7793 16.3125C22.3106 12.5625 29.0606 10.7812 27.5606 4.96875Z" fill="#2B948F"/>
<path d="M19.312 32.5316C19.312 32.5316 17.9058 33.2816 20.2495 33.5628C22.5933 33.8441 24.562 33.8441 27.6558 33.2816C28.2843 33.6493 28.9429 33.9629 29.6245 34.2191C22.687 37.2191 13.7808 34.1253 19.312 32.5316ZM18.4683 28.5941C18.4683 28.5941 16.9683 29.7191 19.312 30.0003C21.6558 30.2816 24.7495 30.3753 28.8745 29.5316C29.3026 29.9465 29.8139 30.2661 30.3745 30.4691C21.8433 32.9066 12.3745 30.6566 18.4683 28.5941ZM34.8745 35.4378C34.8745 35.4378 35.9058 36.2816 33.7495 36.9378C29.7183 38.1566 16.9683 38.5316 13.4058 37.0316C12.0933 36.4691 14.812 35.4378 16.4995 35.4378C14.9058 34.5003 7.31202 37.4066 12.562 38.2503C26.9058 40.5003 38.6245 37.1253 34.8745 35.4378ZM19.9683 24.5628C19.9683 24.5628 13.4995 26.0628 17.6245 26.6253C19.4058 26.9066 22.9683 26.8128 26.2495 26.5316C29.5308 26.2503 31.5933 25.7816 31.5933 25.7816C31.0406 26.0204 30.5077 26.3025 29.9995 26.6253C23.437 28.3128 10.687 27.5628 14.3433 25.7816C17.9995 24.0003 19.9683 24.5628 19.9683 24.5628ZM31.5933 31.0316C38.437 27.5628 35.2495 23.5316 32.2495 24.8441C35.6245 22.0316 41.7183 28.2191 31.4058 31.2191V31.0316M20.6245 40.5003C27.0933 40.8753 36.937 40.3128 37.1245 37.2191C37.1245 37.2191 36.6558 38.3441 31.7808 39.2816C26.9058 40.2191 19.4995 40.2191 15.4683 39.5628C15.562 39.5628 16.4058 40.2191 20.6245 40.5003Z" fill="#1D6D69"/>
</svg>
