<svg width="64" height="65" viewBox="0 0 64 65" fill="none" xmlns="http://www.w3.org/2000/svg">
<path d="M58 10.5H6C4.89697 10.5 4 11.397 4 12.5V45.5C4 46.603 4.89697 47.5 6 47.5H23.2856V52.5H18.7144V54.5H23.2856H40.7144H45.2856V52.5H40.7144V47.5H58C59.103 47.5 60 46.603 60 45.5V12.5C60 11.397 59.103 10.5 58 10.5ZM6 12.5H58L58.0013 40.8335H6V12.5ZM38.7144 52.5H25.2856V47.5H38.7144V52.5ZM40.7144 45.5H23.2856H6H58.0013H40.7144Z" fill="#2B948F"/>
<path d="M24.0513 28.1035L22.7075 29.585L26.3486 32.8887L22.7075 36.1924L24.0513 37.6738L28.5088 33.6294C28.7178 33.4399 28.8369 33.1709 28.8369 32.8887C28.8369 32.6064 28.7178 32.3374 28.5088 32.1479L24.0513 28.1035ZM13.3789 28.1035L8.92188 32.1479C8.71289 32.3379 8.59375 32.6064 8.59375 32.8887C8.59375 33.1709 8.71289 33.4395 8.92188 33.6294L13.3789 37.6738L14.7227 36.1924L11.082 32.8887L14.7227 29.585L13.3789 28.1035Z" fill="#2B948F"/>
<path d="M20.027 27.4277L15.5703 37.5391L17.4004 38.3457L21.8571 28.2343L20.027 27.4277Z" fill="#2B948F"/>
<path d="M24.2867 15.168H11.4297V17.168H24.2867V15.168Z" fill="#2B948F"/>
<path d="M42.2875 15.168H37.1445V17.168H42.2875V15.168Z" fill="#2B948F"/>
<path d="M34.571 15.168H32V17.168H34.571V15.168Z" fill="#2B948F"/>
<path d="M55.1415 15.168H44.8555V17.168H55.1415V15.168Z" fill="#2B948F"/>
<path d="M29.4275 15.168H26.8555V17.168H29.4275V15.168Z" fill="#2B948F"/>
<path d="M34.5718 19.832H21.7148V21.832H34.5718V19.832Z" fill="#2B948F"/>
<path d="M42.2875 19.832H37.1445V21.832H42.2875V19.832Z" fill="#2B948F"/>
<path d="M47.4275 19.832H44.8555V21.832H47.4275V19.832Z" fill="#2B948F"/>
<path d="M55.143 19.832H50V21.832H55.143V19.832Z" fill="#2B948F"/>
<path d="M55.1422 24.5H42.2852V26.5H55.1422V24.5Z" fill="#2B948F"/>
<path d="M39.7155 24.5H37.1445V26.5H39.7155V24.5Z" fill="#2B948F"/>
<path d="M34.571 24.5H32V26.5H34.571V24.5Z" fill="#2B948F"/>
<path d="M44.8585 29.168H37.1445V31.168H44.8585V29.168Z" fill="#2B948F"/>
<path d="M55.1437 29.168H47.4297V31.168H55.1437V29.168Z" fill="#2B948F"/>
<path d="M42.2858 33.832H39.7148V35.832H42.2858V33.832Z" fill="#2B948F"/>
<path d="M55.1415 33.832H44.8555V35.832H55.1415V33.832Z" fill="#2B948F"/>
</svg>
