<svg width="49" height="48" viewBox="0 0 49 48" fill="none" xmlns="http://www.w3.org/2000/svg">
<g clip-path="url(#clip0_947_7453)">
<g clip-path="url(#clip1_947_7453)">
<path d="M24.6931 47.9998C24.6911 47.9998 24.6891 47.9998 24.6871 47.9998C24.0091 47.9998 23.3751 47.8178 22.8311 47.4978L22.8491 47.5078L16.9751 44.0338C16.0991 43.5418 16.5271 43.3698 16.8151 43.2678C17.8271 42.9498 18.7071 42.5378 19.5191 42.0318L19.4711 42.0598C19.5271 42.0338 19.5911 42.0198 19.6591 42.0198C19.7511 42.0198 19.8371 42.0478 19.9091 42.0958L19.9071 42.0938L24.4191 44.7718C24.4971 44.8138 24.5911 44.8398 24.6911 44.8398C24.7911 44.8398 24.8851 44.8138 24.9671 44.7698L24.9631 44.7718L42.5511 34.6178C42.7131 34.5178 42.8191 34.3418 42.8191 34.1418C42.8191 34.1398 42.8191 34.1398 42.8191 34.1378V13.8438C42.8171 13.6418 42.7091 13.4638 42.5471 13.3658L42.5451 13.3638L24.9631 3.21977C24.8851 3.17577 24.7911 3.14977 24.6931 3.14977C24.5951 3.14977 24.5011 3.17577 24.4191 3.22177L24.4211 3.21977L6.84309 13.3658C6.67709 13.4638 6.56709 13.6418 6.56509 13.8458V34.1438C6.56509 34.3458 6.67509 34.5198 6.83909 34.6118L6.84109 34.6138L11.6611 37.3978C14.2751 38.7058 15.8751 37.1658 15.8751 35.6198V15.5758C15.8751 15.2958 16.1031 15.0678 16.3831 15.0678H16.3891H18.6191C18.8991 15.0678 19.1291 15.2938 19.1291 15.5758V35.6198C19.1291 39.1098 17.2291 41.1118 13.9211 41.1118C13.8811 41.1118 13.8351 41.1138 13.7891 41.1138C12.3391 41.1138 10.9851 40.7038 9.83709 39.9938L5.25709 37.3578C4.14509 36.7018 3.41309 35.5118 3.41309 34.1478V13.8458C3.41509 12.4858 4.14909 11.2998 5.24109 10.6558L5.25909 10.6458L22.8491 0.481766C23.3831 0.183766 24.0191 0.00976562 24.6971 0.00976562C25.3751 0.00976562 26.0131 0.185766 26.5651 0.491766L26.5451 0.481766L44.1331 10.6458C45.2431 11.2998 45.9751 12.4858 45.9791 13.8458V34.1458C45.9771 35.5078 45.2431 36.6978 44.1491 37.3458L44.1311 37.3558L26.5471 47.5118C26.0191 47.8218 25.3831 48.0038 24.7031 48.0038C24.6991 48.0038 24.6931 48.0038 24.6891 48.0038L24.6931 47.9998Z" fill="#2B948F"/>
<path d="M30.1293 34.0173C22.4333 34.0173 20.8193 30.4853 20.8193 27.5193V27.5173C20.8193 27.2373 21.0453 27.0113 21.3253 27.0113H21.3293H23.6033C23.8573 27.0113 24.0693 27.1973 24.1093 27.4393C24.4513 29.7553 25.4753 30.9253 30.1293 30.9253C33.8353 30.9253 35.4093 30.0873 35.4093 28.1213C35.4093 26.9873 34.9633 26.1473 29.2053 25.5833C24.3933 25.1033 21.4173 24.0433 21.4173 20.1933C21.4173 16.6453 24.4093 14.5273 29.4173 14.5273C35.0533 14.5273 37.8413 16.4833 38.1933 20.6793C38.1953 20.6933 38.1953 20.7093 38.1953 20.7233C38.1953 21.0053 37.9673 21.2313 37.6873 21.2313H35.4213C35.1813 21.2313 34.9793 21.0613 34.9293 20.8353V20.8313C34.3813 18.3953 33.0493 17.6173 29.4373 17.6173C25.3913 17.6173 24.9213 19.0273 24.9213 20.0813C24.9213 21.3613 25.4773 21.7333 30.9393 22.4553C36.3433 23.1713 38.9113 24.1813 38.9113 27.9793C38.9033 31.8173 35.7093 34.0133 30.1353 34.0133L30.1293 34.0173Z" fill="#2B948F"/>
</g>
</g>
<defs>
<clipPath id="clip0_947_7453">
<rect width="48" height="48" fill="white" transform="translate(0.416992)"/>
</clipPath>
<clipPath id="clip1_947_7453">
<rect width="48" height="48" fill="white" transform="translate(0.416992)"/>
</clipPath>
</defs>
</svg>
