<svg width="49" height="48" viewBox="0 0 49 48" fill="none" xmlns="http://www.w3.org/2000/svg">
<g clip-path="url(#clip0_947_7252)">
<path d="M24.1045 11.2033C24.0345 11.2033 23.9525 11.2033 23.8725 11.2033C20.6525 11.2033 17.5125 11.5533 14.4925 12.2173L14.7805 12.1633C11.8965 12.7693 9.34449 13.6653 6.96049 14.8493L7.14849 14.7653C5.12649 15.7393 3.41449 17.0433 2.00849 18.6253L1.99449 18.6413C0.852492 19.8893 0.140492 21.5473 0.104492 23.3693V23.3773C0.142492 25.2053 0.852492 26.8593 1.99649 28.1113L1.99249 28.1053C3.41249 29.7033 5.12449 31.0073 7.05049 31.9393L7.14649 31.9813C9.34249 33.0793 11.8945 33.9773 14.5665 34.5453L14.7785 34.5833C17.5105 35.1933 20.6505 35.5433 23.8705 35.5433H24.1165H24.1045H24.3365C27.5565 35.5433 30.6965 35.1933 33.7165 34.5293L33.4285 34.5833C36.3125 33.9773 38.8645 33.0813 41.2485 31.8973L41.0605 31.9813C43.0825 31.0073 44.7945 29.7033 46.2005 28.1213L46.2145 28.1053C47.3565 26.8573 48.0685 25.1993 48.1045 23.3773V23.3693C48.0685 21.5393 47.3565 19.8813 46.2105 18.6273L46.2145 18.6333C44.7945 17.0353 43.0825 15.7313 41.1565 14.7993L41.0605 14.7573C38.8645 13.6593 36.3125 12.7613 33.6405 12.1933L33.4285 12.1553C30.6965 11.5453 27.5565 11.1953 24.3365 11.1953C24.2545 11.1953 24.1725 11.1953 24.0905 11.1953H24.1025L24.1045 11.2033ZM17.8645 25.7313C17.6025 25.9693 17.3045 26.1733 16.9805 26.3333L16.9585 26.3433C16.6765 26.4793 16.3425 26.6053 15.9945 26.7013L15.9525 26.7113C15.6085 26.8353 15.2105 26.9093 14.7945 26.9093C14.7785 26.9093 14.7625 26.9093 14.7465 26.9093H10.8045L10.1645 30.8353H7.27049L9.83049 17.4853H15.3765C15.4125 17.4853 15.4565 17.4833 15.5005 17.4833C16.2205 17.4833 16.9125 17.6093 17.5525 17.8413L17.5105 17.8273C18.1005 18.0433 18.6025 18.3793 19.0065 18.8053L19.0085 18.8073C19.3585 19.2533 19.6085 19.7933 19.7165 20.3853L19.7205 20.4073C19.7705 20.6993 19.8005 21.0353 19.8005 21.3793C19.8005 21.7713 19.7625 22.1533 19.6905 22.5253L19.6965 22.4873C19.6245 22.8453 19.5305 23.1573 19.4125 23.4573L19.4265 23.4193C19.3118 23.714 19.1892 23.992 19.0585 24.2533C18.8958 24.5146 18.7158 24.7766 18.5185 25.0393C18.3265 25.2973 18.1165 25.5233 17.8845 25.7253L17.8785 25.7293L17.8645 25.7313ZM26.2085 26.9093L27.3385 21.2653C27.3865 21.0513 27.4145 20.8073 27.4145 20.5553C27.4145 20.5033 27.4125 20.4513 27.4105 20.3993V20.4073C27.4085 20.1893 27.3245 19.9913 27.1885 19.8413C27.0505 19.7213 26.8865 19.6293 26.7065 19.5733L26.6965 19.5713C26.4465 19.4913 26.1585 19.4473 25.8605 19.4473C25.8265 19.4473 25.7925 19.4473 25.7585 19.4493H25.7625H23.5105L22.0385 26.9093H19.1925L21.7525 13.9493H24.5985L23.9125 17.4833H26.4725C26.5165 17.4833 26.5665 17.4813 26.6185 17.4813C27.2805 17.4813 27.9245 17.5633 28.5405 17.7153L28.4865 17.7033C28.9845 17.8133 29.4185 18.0473 29.7685 18.3673L29.7665 18.3653C30.0785 18.6113 30.3005 18.9613 30.3785 19.3613L30.3805 19.3713C30.4085 19.5493 30.4245 19.7533 30.4245 19.9613C30.4245 20.3013 30.3825 20.6313 30.3005 20.9453L30.3065 20.9173L29.1285 26.9053L26.2085 26.9093ZM42.0125 22.5413C41.9325 22.9033 41.8485 23.1973 41.7485 23.4873L41.7665 23.4253C41.6585 23.7433 41.5265 24.0193 41.3645 24.2753L41.3745 24.2593C41.2365 24.5693 41.0725 24.8353 40.8785 25.0753L40.8845 25.0673C40.6885 25.3113 40.4785 25.5273 40.2505 25.7253L40.2445 25.7313C39.9825 25.9693 39.6845 26.1733 39.3605 26.3333L39.3385 26.3433C39.0565 26.4793 38.7225 26.6053 38.3745 26.7013L38.3325 26.7113C37.9885 26.8353 37.5905 26.9093 37.1745 26.9093C37.1585 26.9093 37.1425 26.9093 37.1265 26.9093H33.1845L32.4985 30.8273H29.6525L32.2125 17.4773H37.7105C37.7545 17.4753 37.8045 17.4753 37.8565 17.4753C38.5865 17.4753 39.2885 17.6013 39.9385 17.8353L39.8945 17.8213C40.4685 18.0293 40.9525 18.3653 41.3305 18.7973L41.3345 18.8013C41.7145 19.2453 41.9845 19.7953 42.0905 20.3993L42.0945 20.4193C42.1385 20.6813 42.1645 20.9813 42.1645 21.2893C42.1645 21.7313 42.1125 22.1593 42.0145 22.5713L42.0225 22.5333L42.0125 22.5413ZM36.6125 19.4473H34.6565L33.6305 24.9453H35.3425H35.4465C35.9465 24.9453 36.4385 24.8993 36.9145 24.8133L36.8645 24.8213C37.2725 24.7493 37.6365 24.6033 37.9565 24.3973L37.9445 24.4033C38.2165 24.1593 38.4445 23.8773 38.6225 23.5613L38.6305 23.5453C38.8365 23.1693 38.9905 22.7313 39.0685 22.2693L39.0725 22.2453C39.1345 21.9873 39.1685 21.6893 39.1685 21.3833C39.1685 21.2353 39.1605 21.0893 39.1445 20.9473L39.1465 20.9653C39.1185 20.6493 39.0025 20.3633 38.8245 20.1273L38.8265 20.1313C38.5945 19.9153 38.3165 19.7473 38.0085 19.6453L37.9925 19.6413C37.6205 19.5173 37.1945 19.4473 36.7505 19.4473C36.7045 19.4473 36.6585 19.4473 36.6145 19.4493H36.6205L36.6125 19.4473ZM14.2325 19.4473H12.2765L11.2465 24.9453H12.9625H13.0665C13.5665 24.9453 14.0585 24.8993 14.5345 24.8133L14.4845 24.8213C14.8925 24.7493 15.2565 24.6033 15.5765 24.3973L15.5645 24.4033C15.8365 24.1593 16.0645 23.8773 16.2425 23.5613L16.2505 23.5453C16.4565 23.1693 16.6105 22.7313 16.6885 22.2693L16.6925 22.2453C16.7545 21.9873 16.7885 21.6893 16.7885 21.3833C16.7885 21.2353 16.7805 21.0893 16.7645 20.9473L16.7665 20.9653C16.7385 20.6493 16.6225 20.3633 16.4445 20.1273L16.4465 20.1313C16.2145 19.9153 15.9365 19.7473 15.6285 19.6453L15.6125 19.6413C15.2405 19.5173 14.8145 19.4473 14.3705 19.4473C14.3245 19.4473 14.2785 19.4473 14.2345 19.4493H14.2405L14.2325 19.4473Z" fill="#2B948F"/>
</g>
<defs>
<clipPath id="clip0_947_7252">
<rect width="48" height="48" fill="white" transform="translate(0.104492)"/>
</clipPath>
</defs>
</svg>
