<svg width="49" height="48" viewBox="0 0 49 48" fill="none" xmlns="http://www.w3.org/2000/svg">
<path d="M24.3125 6C22.8125 6 21.4062 6.09375 20.1875 6.375C16.5312 7.03125 15.875 8.34375 15.875 10.7812V14.0625H24.5V15.1875H12.6875C10.1562 15.1875 8 16.6875 7.25 19.5C6.5 22.7812 6.5 24.8438 7.25 28.2188C7.90625 30.8438 9.40625 32.625 11.8438 32.625H14.8438V28.6875C14.8438 25.875 17.2812 23.3438 20.1875 23.3438H28.7188C31.1562 23.3438 33.0312 21.375 33.0312 19.0312V10.7812C33.0312 8.53125 31.0625 6.75 28.7188 6.375C27.3125 6.09375 25.7188 6 24.3125 6ZM19.625 8.625C20.5625 8.625 21.2188 9.375 21.2188 10.3125C21.2188 11.1562 20.5625 11.9062 19.625 11.9062C18.7812 11.9062 18.0312 11.1562 18.0312 10.3125C18.0312 9.375 18.7812 8.625 19.625 8.625Z" fill="#2B948F"/>
<path d="M24.6875 41.8125C26.1875 41.8125 27.5938 41.7188 28.8125 41.4375C32.4688 40.7812 33.125 39.4688 33.125 37.0312V33.75H24.5V32.625H36.3125C38.8438 32.625 41 31.125 41.75 28.3125C42.5 25.0312 42.5 22.9688 41.75 19.5938C41.0938 16.9688 39.5938 15.1875 37.1562 15.1875H34.1562V19.125C34.1562 21.9375 31.7188 24.4688 28.8125 24.4688L20.2812 24.4688C17.8437 24.4688 15.9687 26.4375 15.9688 28.7813V37.0312C15.9688 39.2812 17.9375 41.0625 20.2812 41.4375C21.6875 41.7188 23.2812 41.8125 24.6875 41.8125ZM29.375 39.1875C28.4375 39.1875 27.7812 38.4375 27.7812 37.5C27.7812 36.6562 28.4375 35.9062 29.375 35.9062C30.2188 35.9062 30.9688 36.6562 30.9688 37.5C30.9688 38.4375 30.2188 39.1875 29.375 39.1875Z" fill="#2B948F"/>
</svg>
