<svg width="64" height="64" viewBox="0 0 64 64" fill="none" xmlns="http://www.w3.org/2000/svg">
<path d="M0 8C0 3.58172 3.58172 0 8 0H56C60.4183 0 64 3.58172 64 8V56C64 60.4183 60.4183 64 56 64H8C3.58172 64 0 60.4183 0 56V8Z" fill="#F7F7F7"/>
<path d="M31.9997 35.3333V38M25.333 29.3717C25.9616 29.3333 26.7365 29.3333 27.733 29.3333H36.2663C37.2629 29.3333 38.0378 29.3333 38.6663 29.3717M25.333 29.3717C24.5486 29.4196 23.9921 29.5273 23.517 29.7693C22.7644 30.1528 22.1525 30.7647 21.769 31.5174C21.333 32.373 21.333 33.4931 21.333 35.7333V37.6C21.333 39.8402 21.333 40.9603 21.769 41.816C22.1525 42.5686 22.7644 43.1805 23.517 43.564C24.3727 44 25.4928 44 27.733 44H36.2663C38.5066 44 39.6267 44 40.4823 43.564C41.235 43.1805 41.8469 42.5686 42.2304 41.816C42.6663 40.9603 42.6663 39.8402 42.6663 37.6V35.7333C42.6663 33.4931 42.6663 32.373 42.2304 31.5174C41.8469 30.7647 41.235 30.1528 40.4823 29.7693C40.0073 29.5273 39.4508 29.4196 38.6663 29.3717M25.333 29.3717V26.6667C25.333 22.9848 28.3178 20 31.9997 20C35.6816 20 38.6663 22.9848 38.6663 26.6667V29.3717" stroke="#2B948F" stroke-width="2" stroke-linecap="round" stroke-linejoin="round"/>
</svg>
