<svg width="60" height="61" viewBox="0 0 60 61" fill="none" xmlns="http://www.w3.org/2000/svg">
<path d="M1.19922 5.41992V55.5799H58.7992V5.41992H1.19922ZM16.9192 10.5799H19.4392V12.9799H16.9192V10.5799ZM11.5192 10.5799H14.0392V12.9799H11.5192V10.5799ZM6.11922 10.5799H8.63922V12.9799H6.11922V10.5799ZM56.3992 53.1799H3.59922V18.1399H56.3992V53.1799Z" fill="#2B948F"/>
<path d="M42.4803 38.1801V33.2601L39.0003 32.9001C38.7603 32.0601 38.5203 31.3401 38.0403 30.6201L40.3203 27.9801L36.8403 24.5001L34.3203 26.9001C33.6003 26.5401 32.8803 26.1801 32.0403 25.9401L31.8003 22.5801H26.8803L26.6403 25.9401C25.9203 26.1801 25.0803 26.4201 24.3603 26.9001L21.7203 24.7401L18.3603 28.1001L20.6403 30.7401C20.2803 31.4601 19.9203 32.1801 19.6803 33.0201L16.3203 33.2601V38.1801L19.6803 38.4201C19.9203 39.2601 20.2803 39.9801 20.6403 40.7001L18.3603 43.3401L21.8403 46.8201L24.4803 44.5401C25.2003 44.9001 25.9203 45.2601 26.7603 45.5001L27.0003 48.8601H31.9203L32.1603 45.5001C33.0003 45.2601 33.7203 45.0201 34.4403 44.5401L37.0803 46.8201L40.5603 43.3401L38.4003 40.7001C38.7603 39.9801 39.1203 39.2601 39.3603 38.4201L42.4803 38.1801ZM29.2803 40.9401C26.4003 40.9401 24.0003 38.5401 24.0003 35.6601C24.0003 32.7801 26.4003 30.3801 29.2803 30.3801C32.1603 30.3801 34.5603 32.7801 34.5603 35.6601C34.6803 38.6601 32.2803 40.9401 29.2803 40.9401Z" fill="#2B948F"/>
</svg>
