<svg width="36" height="37" viewBox="0 0 36 37" fill="none" xmlns="http://www.w3.org/2000/svg">
<path d="M8.25 12.2725C10.3211 12.2725 12 10.5935 12 8.52246C12 6.45139 10.3211 4.77246 8.25 4.77246C6.17893 4.77246 4.5 6.45139 4.5 8.52246C4.5 10.5935 6.17893 12.2725 8.25 12.2725ZM8.25 12.2725V24.2725M8.25 24.2725C6.17893 24.2725 4.5 25.9514 4.5 28.0225C4.5 30.0935 6.17893 31.7725 8.25 31.7725C10.3211 31.7725 12 30.0935 12 28.0225C12 25.9514 10.3211 24.2725 8.25 24.2725ZM27.75 12.2725C29.8211 12.2725 31.5 10.5935 31.5 8.52246C31.5 6.45139 29.8211 4.77246 27.75 4.77246C25.6789 4.77246 24 6.45139 24 8.52246C24 10.5935 25.6789 12.2725 27.75 12.2725ZM27.75 12.2725C27.75 13.6674 27.75 14.3649 27.5967 14.9371C27.1806 16.4901 25.9676 17.703 24.4147 18.1191C23.8424 18.2725 23.145 18.2725 21.75 18.2725H12.75C10.2647 18.2725 8.25 20.2872 8.25 22.7725" stroke="#2B948F" stroke-width="3" stroke-linecap="round" stroke-linejoin="round"/>
</svg>
