<svg width="440" height="438" viewBox="0 0 440 438" fill="none" xmlns="http://www.w3.org/2000/svg">
<path d="M54.4383 0.272461H53.4717V131.276H54.4383V0.272461Z" fill="#C7C7C7"/>
<path d="M99.4431 175.131L95.7894 183.173H12.1109L8.4668 175.131L44.086 150.473H63.8239L99.4431 175.131Z" fill="#EBEBEB"/>
<path d="M66.2983 126.713L63.8238 150.472H44.0858L41.6113 126.713H66.2983Z" fill="#DBDBDB"/>
<path d="M99.443 175.131L95.7796 183.173H12.1108L8.45703 175.131H99.443Z" fill="#DBDBDB"/>
<path d="M152.113 0.272461H151.146V105.332H152.113V0.272461Z" fill="#C7C7C7"/>
<path d="M197.118 149.177L193.464 157.228H109.786L106.142 149.177L141.761 124.519H161.499L197.118 149.177Z" fill="#EBEBEB"/>
<path d="M163.973 100.769L161.499 124.518H141.761L139.286 100.769H163.973Z" fill="#DBDBDB"/>
<path d="M197.118 149.186L193.454 157.228H109.786L106.132 149.186H197.118Z" fill="#DBDBDB"/>
<path d="M25.0929 216.153L15.5525 231.532L20.2889 234.432C20.9527 234.864 21.4844 235.47 21.8255 236.185C22.1666 236.899 22.3038 237.694 22.2221 238.482C22.1445 239.359 22.1155 240.24 22.1351 241.121C22.1621 241.922 21.967 242.716 21.5713 243.414C21.1755 244.111 20.5945 244.686 19.8926 245.074L15.0596 247.694L23.643 263.681L28.476 261.062C29.1636 260.693 29.9394 260.52 30.7185 260.563C31.4977 260.605 32.25 260.862 32.8933 261.303C33.6828 261.854 34.5024 262.361 35.3485 262.821C36.0357 263.199 36.604 263.761 36.9898 264.444C37.3757 265.127 37.5637 265.903 37.533 266.687L37.359 272.226L55.4538 272.786L55.6181 267.228C55.6435 266.443 55.8865 265.68 56.32 265.025C56.7535 264.37 57.3605 263.847 58.0732 263.517C58.4985 263.314 58.9142 263.101 59.3298 262.879C59.7454 262.656 60.1514 262.424 60.5477 262.183C61.2149 261.772 61.9828 261.555 62.7661 261.555C63.5493 261.555 64.3173 261.772 64.9844 262.183L69.7304 265.083L79.2611 249.704L74.5151 246.756C73.8505 246.325 73.3181 245.719 72.9769 245.004C72.6357 244.289 72.499 243.494 72.5819 242.706C72.6593 241.832 72.6883 240.954 72.6689 240.077C72.6427 239.274 72.8393 238.48 73.2368 237.782C73.6344 237.084 74.2173 236.51 74.9211 236.123L79.7541 233.504L71.1996 217.555L66.3087 220.174C65.5991 220.546 64.8004 220.712 64.0016 220.656C63.2028 220.6 62.4354 220.323 61.785 219.855C61.06 219.353 60.3061 218.889 59.5425 218.473C58.8384 218.106 58.2509 217.55 57.8461 216.866C57.4414 216.183 57.2355 215.401 57.2516 214.607L57.4739 209.059L39.3889 208.488L39.2149 214.046C39.1822 214.84 38.93 215.609 38.4863 216.267C38.0426 216.926 37.4248 217.449 36.7017 217.777C36.2958 217.961 35.8994 218.164 35.5031 218.377C35.1068 218.589 34.7202 218.812 34.3432 219.044C33.6643 219.461 32.8831 219.682 32.0862 219.682C31.2894 219.682 30.5081 219.461 29.8292 219.044L25.0929 216.153ZM38.7606 228.603C41.2777 226.797 44.2973 225.825 47.3952 225.823C50.4932 225.822 53.5139 226.79 56.0332 228.593C58.5525 230.396 60.4438 232.943 61.4416 235.875C62.4393 238.808 62.4934 241.98 61.5962 244.945C60.6991 247.91 58.8957 250.52 56.4393 252.408C53.983 254.296 50.997 255.367 47.9008 255.47C44.8046 255.574 41.7537 254.705 39.1764 252.986C36.5991 251.267 34.625 248.784 33.5313 245.886C32.3786 242.831 32.2663 239.482 33.2118 236.357C34.1574 233.232 36.1078 230.506 38.7606 228.603Z" fill="#F9FAFB"/>
<path d="M421.881 66.0018C421.476 65.7644 421.145 65.419 420.925 65.0042C420.704 64.5894 420.604 64.1216 420.634 63.6529C420.634 63.3919 420.634 63.131 420.634 62.87C420.634 62.609 420.634 62.3384 420.634 62.0774C420.604 61.6087 420.704 61.1409 420.925 60.7261C421.145 60.3113 421.476 59.9659 421.881 59.7285L424.713 58.095L419.397 48.864L416.526 50.5362C416.118 50.7703 415.653 50.8854 415.183 50.8683C414.713 50.8513 414.258 50.7027 413.868 50.4395C413.423 50.1592 412.969 49.8886 412.495 49.6469C412.077 49.4369 411.725 49.1155 411.478 48.7181C411.23 48.3207 411.097 47.8628 411.094 47.3947V44.0986H400.461V47.3561C400.45 47.8198 400.311 48.2714 400.061 48.6618C399.81 49.0521 399.457 49.3661 399.04 49.5696C398.567 49.8112 398.074 50.0819 397.668 50.3622C397.278 50.6254 396.822 50.7739 396.353 50.791C395.883 50.8081 395.417 50.693 395.01 50.4589L392.178 48.8253L386.852 58.0563L389.693 59.6995C390.107 59.9361 390.444 60.2853 390.666 60.7062C390.889 61.1272 390.987 61.6027 390.95 62.0774C390.95 62.3384 390.95 62.5993 390.95 62.8603C390.95 63.1213 390.95 63.3823 390.95 63.6433C390.981 64.1144 390.88 64.585 390.658 65.0018C390.436 65.4185 390.102 65.7649 389.693 66.0018L386.852 67.6353L392.178 76.8663L395 75.2328C395.408 74.9994 395.872 74.8839 396.341 74.8993C396.811 74.9146 397.267 75.0602 397.658 75.3198C398.103 75.6135 398.565 75.8813 399.04 76.1221C399.458 76.3325 399.808 76.6543 400.054 77.0518C400.3 77.4493 400.431 77.907 400.432 78.3742V81.6317H411.065V78.3646C411.068 77.8965 411.201 77.4386 411.449 77.0412C411.696 76.6438 412.048 76.3224 412.466 76.1124C412.941 75.8695 413.402 75.6017 413.849 75.3101C414.238 75.0503 414.693 74.9046 415.161 74.8892C415.628 74.8738 416.091 74.9895 416.497 75.2231L419.329 76.8567L424.646 67.6257L421.881 66.0018ZM405.797 71.5984C404.076 71.5984 402.394 71.0882 400.964 70.1323C399.533 69.1764 398.418 67.8177 397.76 66.2281C397.101 64.6385 396.929 62.8893 397.265 61.2018C397.6 59.5143 398.429 57.9642 399.645 56.7476C400.862 55.531 402.412 54.7024 404.1 54.3667C405.787 54.0311 407.536 54.2034 409.126 54.8618C410.716 55.5202 412.074 56.6353 413.03 58.0659C413.986 59.4965 414.496 61.1784 414.496 62.899C414.495 64.043 414.268 65.1756 413.829 66.2318C413.389 67.2881 412.745 68.2472 411.935 69.0544C411.124 69.8616 410.162 70.5009 409.104 70.9358C408.046 71.3706 406.912 71.5925 405.768 71.5887L405.797 71.5984Z" fill="#EBEBEB"/>
<path d="M182.087 308.481C181.709 308.26 181.394 307.944 181.174 307.564C180.954 307.185 180.836 306.755 180.831 306.316C180.831 305.881 180.831 305.456 180.831 305.021C180.784 304.585 180.81 304.144 180.908 303.716C181.015 303.289 181.235 302.898 181.546 302.585C181.874 302.298 182.238 302.054 182.629 301.86L184.881 300.546V300.594L179.507 291.392H179.632L176.675 293.132C176.13 293.403 175.509 293.479 174.915 293.345C174.357 293.17 173.826 292.916 173.34 292.591L172.605 292.175C172.334 292.033 172.089 291.847 171.88 291.624C171.452 291.178 171.192 290.597 171.146 289.981V286.549L171.368 286.772L160.735 286.868L161.064 286.549V289.99C161.033 290.484 160.877 290.962 160.61 291.378C160.342 291.794 159.973 292.135 159.537 292.368L158.812 292.803L158.087 293.229C157.806 293.405 157.5 293.535 157.178 293.615C156.527 293.758 155.847 293.68 155.245 293.393L152.249 291.682L152.828 291.527L147.541 300.778L147.367 300.13L150.364 301.851C150.785 302.14 151.127 302.531 151.359 302.987C151.59 303.443 151.703 303.949 151.688 304.46V305.311V306.152C151.693 306.479 151.648 306.805 151.553 307.119C151.352 307.771 150.932 308.334 150.364 308.713L147.367 310.434L147.532 309.825L152.809 319.075L152.268 318.93L155.274 317.239C155.877 316.956 156.558 316.885 157.207 317.036C157.517 317.117 157.814 317.244 158.087 317.413L158.821 317.848L159.546 318.273C159.828 318.428 160.082 318.627 160.3 318.863C160.736 319.339 160.995 319.949 161.035 320.593V324.044L160.774 323.783L171.407 323.889L171.252 324.044V320.612C171.298 320.011 171.55 319.444 171.967 319.008C172.406 318.623 172.893 318.298 173.417 318.041C173.9 317.724 174.423 317.474 174.973 317.297C175.55 317.159 176.156 317.231 176.684 317.5L179.652 319.22H179.584L184.939 310.009L182.087 308.481ZM182.087 308.481L184.92 310.105L179.632 319.346V319.394L176.655 317.703C176.15 317.458 175.576 317.397 175.031 317.529C174.473 317.697 173.945 317.951 173.465 318.283C172.961 318.538 172.496 318.864 172.083 319.249C171.708 319.655 171.486 320.177 171.455 320.728V324.15V324.305H171.3L160.668 324.411H160.416V324.082V320.67C160.376 320.167 160.165 319.693 159.817 319.327C159.641 319.146 159.439 318.993 159.218 318.872L158.464 318.447L157.71 318.022C157.498 317.894 157.266 317.802 157.024 317.751C156.538 317.643 156.029 317.704 155.583 317.925L152.684 319.655L152.345 319.858L152.142 319.51L146.778 310.308L146.555 309.922L146.942 309.699L149.842 307.989C150.227 307.724 150.51 307.335 150.644 306.887C150.71 306.661 150.743 306.426 150.741 306.191V305.321V304.451C150.743 304.215 150.71 303.981 150.644 303.755C150.509 303.31 150.221 302.927 149.832 302.672L146.932 300.952L146.517 300.72L146.758 300.314L152.113 291.112L152.336 290.735L152.703 290.947L155.603 292.658C156.034 292.871 156.525 292.929 156.995 292.823C157.231 292.773 157.457 292.681 157.661 292.552L158.415 292.127L159.179 291.701C159.394 291.587 159.589 291.441 159.759 291.266C160.101 290.91 160.306 290.445 160.339 289.952V286.559V286.221H160.658L171.291 286.317H171.532V286.54V289.952C171.568 290.484 171.782 290.988 172.141 291.382C172.548 291.767 173.006 292.093 173.504 292.349C173.959 292.674 174.461 292.928 174.993 293.103C175.521 293.228 176.077 293.17 176.568 292.939L179.555 291.266L179.632 291.218V291.295L184.92 300.546L182.658 301.841C182.269 302.029 181.908 302.27 181.585 302.556C181.275 302.858 181.054 303.239 180.947 303.658C180.845 304.082 180.816 304.52 180.86 304.953C180.86 305.388 180.86 305.823 180.86 306.249C180.85 306.696 180.958 307.138 181.174 307.53C181.389 307.922 181.704 308.25 182.087 308.481Z" fill="#EBEBEB"/>
<path d="M166.003 314.079C164.523 314.073 163.067 313.7 161.765 312.994C160.464 312.289 159.357 311.272 158.544 310.035C157.731 308.797 157.237 307.378 157.106 305.903C156.974 304.428 157.21 302.944 157.792 301.583C158.374 300.221 159.284 299.025 160.441 298.101C161.597 297.177 162.965 296.553 164.421 296.286C165.877 296.019 167.377 296.116 168.787 296.569C170.196 297.023 171.471 297.818 172.499 298.884C174.161 300.621 175.065 302.947 175.012 305.35C174.934 307.68 173.956 309.888 172.283 311.511C170.61 313.133 168.373 314.043 166.042 314.05L166.003 314.079ZM166.003 314.079C167.135 314.078 168.255 313.85 169.298 313.41C170.341 312.97 171.285 312.325 172.074 311.515C172.864 310.704 173.484 309.744 173.897 308.69C174.31 307.636 174.509 306.511 174.48 305.379C174.415 303.171 173.492 301.076 171.908 299.537C170.324 297.997 168.202 297.136 165.994 297.134C163.743 297.134 161.584 298.028 159.993 299.62C158.401 301.211 157.507 303.37 157.507 305.621C157.507 307.872 158.401 310.03 159.993 311.622C161.584 313.214 163.743 314.108 165.994 314.108L166.003 314.079Z" fill="#EBEBEB"/>
<path d="M7.94629 423.412L60.9256 423.18L113.905 423.093L219.863 422.938L325.822 423.093L378.801 423.18L431.781 423.412L378.801 423.654L325.822 423.741L219.863 423.895L113.905 423.741L60.9256 423.654L7.94629 423.412Z" fill="#263238"/>
<path d="M336.541 77.5051C341.886 71.2319 351.04 69.724 359.894 71.5122C368.748 73.3004 379.351 77.7661 380.318 92.5744C381.11 104.599 377.418 116.324 377.418 129.74C377.418 143.156 392.603 175.837 368.303 191.786C346.468 206.111 302.226 192.956 300.863 163.465C299.79 140.092 327.513 118.479 330.432 109.229C333.351 99.9785 330.683 84.3679 336.541 77.5051Z" fill="#263238"/>
<path d="M332.549 90.6973C332.385 97.3861 331.418 104.152 328.683 110.464C327.973 112.063 327.046 113.556 325.928 114.901C324.855 116.254 323.715 117.53 322.574 118.767C320.273 121.271 318.002 123.755 315.808 126.336C311.45 131.392 307.849 137.054 305.117 143.145C302.498 149.264 301.058 155.823 300.874 162.477C300.602 159.119 300.702 155.741 301.173 152.405C301.696 149.052 302.561 145.761 303.754 142.584C306.272 136.219 309.84 130.322 314.31 125.137C316.504 122.518 318.833 120.014 321.153 117.54C323.473 115.065 325.822 112.707 327.262 109.807C328.739 106.842 329.865 103.715 330.616 100.489C331.464 97.2686 332.11 93.9983 332.549 90.6973Z" fill="#263238"/>
<path d="M379.71 102.675C379.545 109.499 379.11 116.314 379.294 123.089C379.373 126.464 379.657 129.831 380.144 133.171C380.647 136.457 381.633 139.744 382.455 143.069C383.276 146.394 384.011 149.767 384.552 153.17C385.075 156.588 385.295 160.046 385.209 163.503C385.052 166.977 384.401 170.41 383.276 173.7C381.979 176.934 380.042 179.873 377.583 182.342C379.738 179.693 381.377 176.663 382.416 173.411C383.317 170.176 383.766 166.832 383.75 163.474C383.476 156.715 382.419 150.01 380.599 143.494C379.826 140.179 378.84 136.892 378.366 133.403C377.922 129.984 377.748 126.536 377.844 123.089C378.048 116.253 378.671 109.435 379.71 102.675Z" fill="#263238"/>
<path d="M344.553 160.062C322.321 184.536 304.178 196.29 286.296 196.29C269.294 196.29 232.969 155.007 230.301 149.565C228.001 144.867 257.82 119.165 262.402 122.365C270.135 127.72 294.938 158.718 297.567 158.863C300.196 159.008 309.881 152.61 333.205 141.687C347.376 135.066 360.019 143.098 344.553 160.062Z" fill="#EB9481"/>
<path d="M233.762 153.633C230.495 150.096 216.779 132.436 214.063 126.675C211.347 120.914 204.764 103.767 208.969 101.244C213.174 98.721 215.494 103.583 215.494 103.583C215.494 103.583 213.86 95.9082 218.326 93.7527C222.792 91.5972 226.155 99.2816 226.155 99.2816C226.155 99.2816 225.053 91.2782 229.654 89.4416C234.255 87.6051 236.363 95.9179 236.363 95.9179C236.363 95.9179 235.009 88.6394 239.436 88.7264C244.762 88.8327 245.739 102.529 249.209 108.667C249.992 110.059 267.178 135.732 267.178 135.732L233.762 153.633Z" fill="#EB9481"/>
<path d="M236.179 95.2135C236.923 105.276 238.991 109.558 244.878 117.552C244.994 117.706 244.791 117.909 244.656 117.764C238.15 110.457 234.787 105.469 235.666 95.2232C235.734 94.7206 236.14 94.7302 236.179 95.2135Z" fill="#263238"/>
<path d="M226.126 98.4898C227.808 108.881 229.993 113.54 235.589 122.365C235.667 122.49 235.464 122.635 235.377 122.519C229.181 114.313 225.933 109.258 225.614 98.6541C225.595 98.1708 226.049 98.0065 226.126 98.4898Z" fill="#263238"/>
<path d="M215.802 104.028C218.161 113.974 220.355 119.184 226.87 127.053C227.024 127.246 226.763 127.488 226.599 127.314C219.176 119.929 216.392 113.443 215.512 104.115C215.454 103.497 215.657 103.4 215.802 104.028Z" fill="#263238"/>
<path d="M274.843 138.187C274.843 138.187 274.62 125.534 273.296 119.996C271.972 114.457 259.493 95.647 255.23 98.1215C249.788 101.311 254.873 113.587 258.13 119.29C258.13 119.29 245.564 126.675 247.275 136.283C248.986 145.891 274.843 138.187 274.843 138.187Z" fill="#EB9481"/>
<path d="M254.022 99.4848C251.122 105.98 255.955 113.181 258.71 118.933C258.754 119.015 258.778 119.108 258.779 119.201C258.781 119.295 258.76 119.388 258.719 119.472C258.677 119.556 258.616 119.629 258.54 119.685C258.465 119.741 258.377 119.778 258.284 119.793C253.2 123.244 247.043 129.575 246.966 136.051C246.966 136.09 246.95 136.127 246.923 136.154C246.896 136.181 246.859 136.196 246.821 136.196C246.782 136.196 246.745 136.181 246.718 136.154C246.691 136.127 246.676 136.09 246.676 136.051C245.815 129.092 251.354 122.364 257.154 118.952C254.254 113.085 249.74 105.661 253.964 99.4268L254.022 99.4848Z" fill="#263238"/>
<path d="M306.219 151.749L324.082 185.077C324.082 185.077 348.304 161.56 352.171 151.749C356.037 141.938 351.871 134.814 334.637 140.062C324.791 142.98 315.269 146.896 306.219 151.749Z" fill="#2B948F"/>
<path d="M328.209 178.127C327.329 176.319 326.556 174.454 325.638 172.656C324.719 170.858 323.801 169.079 322.844 167.32C320.911 163.763 318.978 160.196 316.967 156.688C315.827 154.754 314.628 152.763 313.381 150.888C313.333 150.801 313.168 150.888 313.217 150.956C316.494 158.292 320.466 165.319 324.429 172.298C325.58 174.318 326.885 176.242 328.083 178.233C328.122 178.282 328.257 178.195 328.209 178.127Z" fill="#263238"/>
<path d="M352.17 151.75C348.304 161.56 324.081 185.078 324.081 185.078L312.047 162.662L351.745 140.711C354.026 143.089 353.997 147.12 352.17 151.75Z" fill="#263238"/>
<path d="M310.287 207.859C310.287 207.859 300.467 231.367 303.937 249.249H412.215C408.697 200.639 384.464 158.862 370.149 145.34C358.608 134.436 346.457 135.413 338 140.99C336.009 142.314 314.038 172.675 311.66 177.479C302.226 196.434 310.287 207.859 310.287 207.859Z" fill="#2B948F"/>
<path d="M338.753 139.56C338.753 139.56 331.987 159.018 335.912 160.033C345.674 162.546 358.772 146.607 359.555 144.983C359.748 144.567 360.618 133.674 361.266 125.197C361.681 119.745 362 115.289 362 115.289L337.913 123.553L338.686 138.487L338.753 139.56Z" fill="#EB9481"/>
<path d="M337.874 123.553L338.647 138.487C343.548 137.801 354.326 135.143 361.227 125.197C361.643 119.745 361.962 115.289 361.962 115.289L358.946 116.256L337.874 123.553Z" fill="#263238"/>
<path d="M319.935 102.646C319.645 110.234 320.399 116.372 322.245 120.451C323.827 123.935 326.344 126.912 329.516 129.052C332.688 131.192 336.392 132.41 340.215 132.572C343.114 132.678 351.466 131.914 357.507 127.313C362.205 123.737 365.037 117.29 366.641 105.952C370.314 80.0274 358.454 71.3087 346.768 70.2648C335.082 69.2209 320.902 76.4897 319.935 102.646Z" fill="#EB9481"/>
<path d="M326.633 96.865C327.242 96.778 327.802 96.604 328.392 96.4687C329.033 96.411 329.639 96.1503 330.122 95.7244C330.243 95.5588 330.308 95.3591 330.308 95.1541C330.308 94.9491 330.243 94.7493 330.122 94.5838C329.821 94.3041 329.451 94.1093 329.051 94.0193C328.65 93.9293 328.232 93.9473 327.841 94.0715C327.007 94.204 326.253 94.6415 325.724 95.2991C325.599 95.4513 325.524 95.638 325.508 95.8342C325.492 96.0304 325.537 96.2268 325.635 96.397C325.734 96.5673 325.883 96.7033 326.061 96.7869C326.239 96.8706 326.438 96.8978 326.633 96.865Z" fill="#263238"/>
<path d="M343.713 97.5132C343.12 97.4087 342.533 97.2732 341.954 97.1073C341.312 97.0538 340.707 96.7886 340.233 96.3533C340.112 96.1878 340.047 95.9881 340.047 95.783C340.047 95.578 340.112 95.3783 340.233 95.2127C340.536 94.9337 340.909 94.7409 341.311 94.6542C341.714 94.5676 342.133 94.5902 342.524 94.7198C343.364 94.8541 344.123 95.2991 344.65 95.9667C344.772 96.1213 344.843 96.3091 344.855 96.5051C344.866 96.7011 344.818 96.8961 344.716 97.0641C344.614 97.232 344.464 97.3649 344.285 97.4452C344.105 97.5254 343.906 97.5492 343.713 97.5132Z" fill="#263238"/>
<path d="M339.441 104.047C339.441 103.979 339.576 104.134 339.576 104.211C339.431 105.98 339.576 108.078 341.151 108.716C341.151 108.716 341.151 108.822 341.151 108.812C339.18 108.445 339.025 105.7 339.441 104.047Z" fill="#263238"/>
<path d="M341.122 102.26C344.022 102.182 343.944 107.933 341.276 108.011C338.609 108.088 338.754 102.327 341.122 102.26Z" fill="#263238"/>
<path d="M342.252 102.578C342.745 102.907 343.219 103.487 343.838 103.545C344.456 103.603 345.075 103.023 345.539 102.443C345.587 102.385 345.635 102.443 345.635 102.51C345.635 103.612 345.21 104.743 344.021 104.898C342.832 105.053 342.185 104.047 341.914 102.965C341.866 102.733 342.049 102.443 342.252 102.578Z" fill="#263238"/>
<path d="M329.92 103.293C329.92 103.225 329.784 103.38 329.784 103.448C329.784 105.236 329.601 107.314 327.986 107.875C327.938 107.875 327.938 107.981 327.986 107.971C329.968 107.701 330.258 104.975 329.92 103.293Z" fill="#263238"/>
<path d="M328.334 101.428C325.434 101.206 325.231 106.957 327.889 107.16C330.548 107.363 330.731 101.621 328.334 101.428Z" fill="#263238"/>
<path d="M327.154 101.767C326.69 102.057 326.188 102.589 325.676 102.608C325.163 102.628 324.603 101.98 324.226 101.371C324.226 101.303 324.139 101.371 324.129 101.429C324.061 102.531 324.371 103.681 325.424 103.942C326.478 104.203 327.125 103.256 327.425 102.173C327.444 101.961 327.299 101.651 327.154 101.767Z" fill="#263238"/>
<path d="M339.267 117.888C338.851 118.323 338.445 118.913 337.807 118.99C337.144 118.995 336.487 118.867 335.874 118.613C335.863 118.603 335.848 118.598 335.832 118.599C335.817 118.6 335.802 118.607 335.792 118.618C335.782 118.63 335.777 118.645 335.777 118.66C335.778 118.676 335.785 118.69 335.797 118.7C336.065 119.041 336.42 119.304 336.825 119.461C337.23 119.617 337.669 119.662 338.097 119.59C338.454 119.478 338.771 119.265 339.01 118.977C339.248 118.689 339.398 118.337 339.441 117.966C339.446 117.944 339.444 117.92 339.434 117.9C339.424 117.88 339.407 117.863 339.386 117.854C339.366 117.845 339.342 117.843 339.32 117.849C339.299 117.856 339.28 117.87 339.267 117.888Z" fill="#263238"/>
<path d="M331.988 111.289C331.988 111.289 331.562 113.947 331.543 115.204C331.543 115.32 331.843 115.378 332.268 115.416C332.268 115.416 332.268 115.416 332.316 115.416C333.383 115.627 334.487 115.542 335.51 115.171C336.532 114.8 337.433 114.156 338.116 113.309C338.203 113.193 338.048 113.058 337.932 113.135C336.308 114.193 334.387 114.701 332.452 114.585C332.374 114.227 333.331 110.061 333.128 110.042C332.139 110.103 331.163 110.302 330.228 110.631C330.953 105.074 332.558 99.6799 333.186 94.1413C333.186 93.948 332.925 93.8803 332.867 94.0543C330.779 99.5833 329.813 105.963 328.914 111.675C328.836 112.4 331.446 111.501 331.988 111.289Z" fill="#263238"/>
<path d="M333.07 114.758C333.689 115.706 334.541 116.478 335.545 117.001C336.098 117.264 336.719 117.352 337.323 117.252C338.648 117.01 338.773 115.821 338.619 114.787C338.524 114.237 338.369 113.699 338.155 113.183C336.671 114.237 334.89 114.789 333.07 114.758Z" fill="#263238"/>
<path d="M335.545 117C336.098 117.263 336.719 117.351 337.323 117.251C338.648 117.009 338.773 115.821 338.619 114.786C337.932 114.756 337.255 114.957 336.697 115.359C336.139 115.761 335.733 116.339 335.545 117Z" fill="#FF98B9"/>
<path d="M366.167 103.622C363.315 103.709 355.225 96.5947 353.756 82.927C353.756 82.927 355.931 95.1061 357.013 96.817C358.096 98.5279 352.489 92.8056 351.146 81.8057C351.146 81.8057 345.443 86.7741 340.359 88.7073C335.274 90.6405 332.094 90.8918 331.659 90.5438C331.224 90.1958 338.696 87.0834 340.552 84.5122C340.552 84.5122 327.281 92.245 320.94 93.2889C320.205 93.4049 321.442 81.9894 330.731 74.6433C340.02 67.2971 352.789 69.1336 357.371 72.8067C357.371 72.8067 362.378 73.0677 368.409 79.8822C374.441 86.6967 369.231 103.525 366.167 103.622Z" fill="#263238"/>
<path d="M362.407 107.798C362.407 107.798 367.713 99.36 371.512 101.216C375.311 103.072 371.609 115.106 367.346 116.933C366.815 117.207 366.235 117.371 365.639 117.414C365.044 117.458 364.446 117.38 363.881 117.186C363.316 116.991 362.797 116.685 362.354 116.284C361.911 115.883 361.554 115.397 361.305 114.855L362.407 107.798Z" fill="#EB9481"/>
<path d="M370.362 104.666C370.439 104.666 370.449 104.753 370.362 104.782C367.375 106.164 365.916 109.074 364.93 112.06C365.79 110.881 366.989 110.205 368.555 111.21C368.632 111.258 368.555 111.394 368.477 111.374C367.939 111.243 367.374 111.278 366.856 111.474C366.338 111.671 365.892 112.02 365.577 112.476C365.056 113.258 364.616 114.09 364.263 114.96C364.137 115.241 363.635 115.125 363.731 114.806C363.727 114.78 363.727 114.754 363.731 114.728C363.461 110.823 366.215 105.236 370.362 104.666Z" fill="#263238"/>
<path d="M378.529 150.646C389.239 163.009 419.262 207.763 412.302 219.855C405.623 231.454 390.476 234.721 381.758 219.14C375.484 207.995 364.939 174.744 362.319 158.795C360.193 145.881 368.631 139.212 378.529 150.646Z" fill="#EB9481"/>
<path d="M368.525 190.268L404.019 177.229C404.019 177.229 384.097 149.961 374.924 144.77C365.751 139.58 358.115 142.712 360.918 160.507C362.427 170.662 364.976 180.635 368.525 190.268Z" fill="#2B948F"/>
<path d="M397.716 172.163C395.783 172.792 393.85 173.294 391.917 173.951C389.983 174.609 388.127 175.276 386.252 175.981C382.454 177.393 378.664 178.804 374.904 180.321C372.797 181.172 370.69 182.09 368.631 183.057C368.534 183.057 368.573 183.26 368.631 183.231C376.364 181.008 383.865 178.05 391.327 175.102C393.492 174.241 395.57 173.168 397.706 172.308C397.851 172.27 397.784 172.134 397.716 172.163Z" fill="#263238"/>
<path d="M370.526 189.437C369.823 189.592 369.135 189.805 368.467 190.075C367.501 187.977 365.21 178.756 364.678 176.388C363.615 171.671 362.745 166.905 361.633 162.188C361.633 162.053 361.372 162.092 361.392 162.188C361.72 164.808 362.126 167.417 362.581 170.008C362.097 168.771 361.614 167.524 361.237 166.258C361.241 166.249 361.243 166.239 361.242 166.229C361.241 166.22 361.238 166.211 361.232 166.203C361.227 166.195 361.22 166.188 361.212 166.183C361.203 166.179 361.194 166.176 361.184 166.176C361.174 166.176 361.165 166.179 361.156 166.183C361.148 166.188 361.141 166.195 361.135 166.203C361.13 166.211 361.127 166.22 361.126 166.229C361.125 166.239 361.127 166.249 361.131 166.258C361.57 167.83 362.109 169.374 362.745 170.878C363.122 175.711 367.52 191.07 367.646 191.012C368.64 190.561 369.608 190.055 370.546 189.495C370.652 189.524 370.652 189.427 370.526 189.437Z" fill="#263238"/>
<path d="M352.973 98.4515L342.872 141.571C342.437 142.838 343.084 143.853 344.322 143.833L363.605 147.758C364.281 147.696 364.925 147.443 365.463 147.029C366 146.615 366.408 146.056 366.64 145.419L376.741 102.299C377.176 101.032 376.529 100.017 375.291 100.046L356.008 96.1123C355.332 96.1741 354.688 96.4269 354.151 96.8411C353.613 97.2553 353.205 97.8138 352.973 98.4515Z" fill="#A6A6A6"/>
<path d="M354.625 98.6917L344.553 141.812C344.118 143.078 344.766 144.093 346.003 144.074L365.287 147.998C365.961 147.937 366.605 147.686 367.142 147.273C367.679 146.861 368.089 146.304 368.322 145.668L378.384 102.548C378.819 101.273 378.172 100.267 376.934 100.287L357.66 96.3525C356.986 96.4177 356.343 96.6718 355.806 97.0855C355.27 97.4993 354.86 98.0559 354.625 98.6917Z" fill="#DBDBDB"/>
<path d="M360.735 100.548C360.744 100.935 360.638 101.315 360.429 101.641C360.219 101.966 359.917 102.221 359.562 102.373C359.206 102.525 358.813 102.567 358.433 102.493C358.053 102.419 357.705 102.233 357.432 101.959C357.159 101.685 356.975 101.335 356.903 100.955C356.831 100.575 356.875 100.182 357.028 99.8268C357.182 99.4718 357.439 99.1712 357.765 98.9637C358.092 98.7562 358.473 98.6515 358.86 98.663C359.358 98.6655 359.835 98.8652 360.186 99.2184C360.538 99.5716 360.735 100.05 360.735 100.548Z" fill="#263238"/>
<path d="M386.91 223.044C393.184 234.644 409.79 228.032 412.303 219.855C418.199 200.668 414.545 168.77 411.027 150.956C409.896 145.224 370.961 150.956 371.193 157.151C371.464 164.643 374.615 200.233 386.91 223.044Z" fill="#EB9481"/>
<path d="M410.592 159.472C412.553 151.019 412.672 142.243 410.94 133.741C408.891 124.471 402.192 104.811 375.263 96.0436C368.874 93.9557 358.289 95.512 367.53 102.703C374.064 107.817 379.748 109.083 382.996 112.756C382.996 112.756 369.773 116.333 367.936 122.809C366.328 128.477 365.123 134.253 364.331 140.092C365.366 140.48 366.425 140.802 367.501 141.058C366.933 146.697 368.245 152.365 371.232 157.181L410.592 159.472Z" fill="#EB9481"/>
<path d="M407.567 125.206C403.566 122.306 395.001 116.139 386.215 113.607C376.472 110.707 356.956 107.904 354.926 115.105C353.438 120.392 360.793 122.142 360.793 122.142C360.793 122.142 352.481 122.664 352.181 127.729C351.91 132.349 357.681 133.364 357.681 133.364C357.681 133.364 352.693 134.544 353.283 139.048C353.998 144.451 364.351 141.087 369.812 145.94C371.039 147.003 407.567 125.206 407.567 125.206Z" fill="#EB9481"/>
<path d="M384.919 124.366C380.704 122.201 369.859 119.755 360.947 121.969C360.744 121.969 360.676 122.191 360.87 122.191C368.942 121.973 377.01 122.733 384.899 124.453C384.948 124.472 384.967 124.385 384.919 124.366Z" fill="#263238"/>
<path d="M381.768 134.109C377.902 132.62 366.641 130.59 357.69 133.142C357.487 133.2 357.429 133.384 357.622 133.374C365.683 132.73 373.79 133.009 381.787 134.206C381.8 134.203 381.811 134.195 381.819 134.185C381.826 134.174 381.829 134.16 381.826 134.148C381.823 134.135 381.816 134.123 381.805 134.116C381.794 134.109 381.781 134.106 381.768 134.109Z" fill="#263238"/>
<path d="M383.353 214.964C383.063 213.998 382.782 213.031 382.473 212.152C381.835 210.218 381.284 208.285 380.724 206.352C379.583 202.486 378.491 198.561 377.534 194.617C375.624 186.757 374.175 178.791 373.194 170.762C372.923 168.539 372.691 166.315 372.45 164.092C372.208 161.869 372.131 159.559 371.705 157.326C371.705 157.21 370.574 155.509 370.13 154.668C369.668 153.793 369.265 152.889 368.921 151.961C368.199 150.069 367.709 148.095 367.462 146.085C367.457 146.072 367.448 146.061 367.437 146.054C367.426 146.046 367.413 146.042 367.399 146.042C367.386 146.042 367.372 146.046 367.361 146.054C367.35 146.061 367.341 146.072 367.336 146.085C367.211 148.373 367.499 150.665 368.187 152.851C368.782 154.679 369.81 156.337 371.183 157.684C371.183 157.974 371.251 161.55 371.367 163.551C371.483 165.552 371.667 167.553 371.889 169.544C372.343 173.546 372.904 177.538 373.609 181.51C374.989 189.547 376.907 197.481 379.351 205.26C379.351 205.385 379.438 205.511 379.477 205.637C379.477 205.927 379.477 206.217 379.477 206.507C379.491 207.222 379.549 207.935 379.651 208.643C379.849 210.051 380.196 211.435 380.685 212.77C380.681 212.782 380.679 212.794 380.681 212.807C380.682 212.819 380.687 212.831 380.694 212.841C380.701 212.851 380.711 212.86 380.722 212.866C380.733 212.871 380.745 212.874 380.757 212.874C380.77 212.874 380.782 212.871 380.793 212.866C380.804 212.86 380.814 212.851 380.821 212.841C380.828 212.831 380.833 212.819 380.834 212.807C380.836 212.794 380.834 212.782 380.83 212.77C380.487 211.373 380.254 209.951 380.134 208.517L379.96 207.048C380.492 208.614 381.052 210.18 381.603 211.736C381.99 212.819 382.386 213.872 382.831 214.926C383.275 215.979 383.623 217.004 384.145 217.98C384.145 218.057 384.3 217.98 384.281 217.922C384.039 216.888 383.652 215.941 383.353 214.964Z" fill="#263238"/>
<path d="M262.857 249.25V223.268L233.327 249.25H262.857Z" fill="#F9FAFB"/>
<path d="M111.091 304.337C119.597 341.348 137.189 385.715 144.7 392.916C154.201 402.022 217.059 418.725 220.191 419.063C227.924 419.846 243.515 363.967 235.241 362.758C222.675 360.941 176.897 358.457 174.162 355.644C171.426 352.831 151.997 328.338 132.143 300.819C118.437 281.806 105.804 281.371 111.091 304.337Z" fill="#AD6359"/>
<path d="M213.966 416.045C214.884 416.509 228.02 423.12 236.14 425.469C242.2 427.228 259.773 431.82 262.373 425.334C264.152 420.926 254.128 417.011 247.111 414.082C243.409 412.536 238.846 408.669 239.938 406.292C241.872 402.135 251.373 406.292 257.637 409.945C269.748 416.982 285.881 429.654 293.275 423.478C296.069 421.158 292.821 416.924 288.075 412.778C295.808 417.611 304.005 421.574 307.204 419.118C309.05 417.717 309.137 415.793 308.113 413.609C310.491 414.382 312.588 414.227 314.057 412.642C316.561 410.013 315.343 406.147 312.598 402.174C313.069 402.125 313.522 401.965 313.919 401.706C314.315 401.447 314.645 401.097 314.879 400.685C320.186 392.595 293.614 369.368 284.441 367.193C257.424 360.765 228.948 361.963 228.948 361.963C218.335 370.479 213.937 416.025 213.966 416.045Z" fill="#AD6359"/>
<path d="M253.693 391.175C260.126 392.18 266.271 394.542 271.72 398.106C278.573 402.629 283.116 407.926 288.858 413.252C288.881 413.282 288.892 413.319 288.891 413.357C288.889 413.395 288.875 413.431 288.85 413.46C288.825 413.488 288.791 413.507 288.754 413.513C288.716 413.519 288.678 413.513 288.645 413.494C285.91 410.961 274.562 401.431 271.633 399.265C266.335 395.279 260.201 392.549 253.693 391.281C253.606 391.272 253.625 391.156 253.693 391.175Z" fill="#263238"/>
<path d="M258.729 379.701C265.834 381.634 273.112 383.568 279.705 386.97C286.915 390.643 292.56 396.636 298.07 402.436C301.408 405.896 304.665 409.44 307.842 413.068C307.968 413.223 307.765 413.465 307.63 413.31C301.998 407.356 296.198 401.556 290.231 395.911C284.708 390.669 278.204 386.57 271.092 383.848C267.032 382.292 262.857 381.064 258.681 379.827C258.623 379.808 258.652 379.682 258.729 379.701Z" fill="#263238"/>
<path d="M266.317 369.679C273.218 371.1 279.24 372.308 285.349 376C293.439 380.901 301.25 389.146 303.985 392.075C307.01 395.303 309.93 398.628 312.791 402.002C312.907 402.137 312.675 402.35 312.549 402.215C305.992 394.818 298.963 387.854 291.506 381.365C287.998 378.224 284.027 375.641 279.733 373.71C275.38 372.001 270.888 370.668 266.307 369.727C266.307 369.727 266.259 369.669 266.317 369.679Z" fill="#263238"/>
<path d="M224.598 359.741L205.267 420.985C205.267 420.985 152.925 406.041 143.404 395.728C133.883 385.414 116.185 332.154 110.994 306.336C105.803 280.519 118.853 281.205 130.848 297.434C142.844 313.663 172.711 353.159 174.345 354.019C175.979 354.879 224.598 359.741 224.598 359.741Z" fill="#2B948F"/>
<path opacity="0.1" d="M224.598 359.741L205.267 420.985C205.267 420.985 152.925 406.041 143.404 395.728C133.883 385.414 116.185 332.154 110.994 306.336C105.803 280.519 118.853 281.205 130.848 297.434C142.844 313.663 172.711 353.159 174.345 354.019C175.979 354.879 224.598 359.741 224.598 359.741Z" fill="black"/>
<path d="M200.24 393.776C202.589 386.556 204.986 379.355 207.055 372.047C208.234 367.9 209.433 363.744 210.573 359.588C210.622 359.423 210.361 359.336 210.303 359.491C207.664 366.644 205.035 373.826 202.725 381.094C200.414 388.363 198.066 395.593 195.862 402.814C194.615 406.951 193.484 411.107 192.488 415.312C192.488 415.389 192.604 415.438 192.633 415.36C195.514 408.294 197.882 401.045 200.24 393.776Z" fill="#263238"/>
<path d="M178.869 412.565L176.549 411.753C172.189 410.197 167.743 408.525 163.558 406.814C163.016 406.601 162.485 406.379 161.963 406.157C161.122 405.809 160.281 405.451 159.469 405.093L158.251 404.562L157.816 404.368L156.559 403.788C154.897 403.025 153.321 402.261 151.852 401.488L150.886 400.947C148.589 399.765 146.424 398.343 144.429 396.703C144.245 396.539 144.061 396.375 143.897 396.21C143.733 396.046 143.559 395.882 143.414 395.727C133.844 385.413 116.194 332.154 111.004 306.336L110.83 305.447V305.253C110.482 303.32 110.172 300.865 109.921 298.236C109.196 285.39 115.276 283.292 122.787 288.937C141.51 329.119 170.189 395.514 178.869 412.565Z" fill="#263238"/>
<path d="M151.717 422.85L37.6582 423.449C37.7549 420.994 53.9937 349.176 66.9075 322.671C83.4653 288.686 92.0391 285.941 97.0944 284.123C103.619 281.784 115.237 282.944 117.992 284.249C121.124 285.709 131.08 303.088 134.647 315.838C141.78 341.481 153.321 421.284 151.717 422.85Z" fill="#EBEBEB"/>
<path d="M91.2465 286.812C91.2465 286.812 105.745 340.506 106.47 344.073C107.563 349.254 114.793 423.179 114.793 423.179L35.29 423.45C35.29 423.45 52.6405 355.015 65.5543 325.05C79.6473 292.186 91.2465 286.812 91.2465 286.812Z" fill="#2B948F"/>
<g opacity="0.1">
<path d="M91.2474 286.811C91.2474 286.811 105.746 340.505 106.471 344.072C107.564 349.253 114.794 423.178 114.794 423.178L35.291 423.449C35.291 423.449 52.6415 355.014 65.5552 325.049C79.6482 292.185 91.2474 286.811 91.2474 286.811Z" fill="black"/>
</g>
<path d="M119.036 285.082C119.461 286.793 132.829 330.416 133.757 341.29C134.792 353.353 143.936 423.451 143.936 423.451H155.535C155.535 423.451 138.745 322.741 134.134 312.098C124.7 290.379 119.036 285.082 119.036 285.082Z" fill="#2B948F"/>
<path opacity="0.1" d="M119.036 285.082C119.461 286.793 132.829 330.416 133.757 341.29C134.792 353.353 143.936 423.451 143.936 423.451H155.535C155.535 423.451 138.745 322.741 134.134 312.098C124.7 290.379 119.036 285.082 119.036 285.082Z" fill="black"/>
<path d="M76.2352 299.368C57.1352 319.831 10.6998 397.468 25.4308 411.629C40.1618 425.79 121.946 406.728 144.912 395.777C151.746 392.529 125.783 349.921 117.751 348.926C111.062 348.104 76.8829 363.734 75.8873 361.772C74.7757 359.549 80.208 343.146 88.453 313.442C97.916 279.205 84.6833 290.321 76.2352 299.368Z" fill="#AD6359"/>
<path d="M151.697 335.179C168.303 332.859 172.962 334.822 185.905 325.426C194.421 319.259 202.018 322.053 197.156 331.845C189.211 347.871 168.41 355.352 160.426 355.874L151.697 335.179Z" fill="#AD6359"/>
<path d="M107.583 351.149C107.583 351.149 126.248 340.787 143.705 336.573C155.768 333.673 182.736 330.241 208.544 356.871C214.663 363.183 218.906 376.522 205.171 369.843C195.408 365.097 190.672 359.143 184.476 357.412C184.476 357.412 187.859 375.014 181.296 380.901C175.56 386.045 169.464 390.774 163.056 395.052C162.002 394.06 161.014 393.001 160.098 391.881C160.098 391.881 153.448 396.801 140.94 395.603L107.583 351.149Z" fill="#AD6359"/>
<path d="M155.67 335.683C161.47 338.689 173.562 345.271 181.604 354.106C190.545 363.927 205.112 385.23 197.794 391.803C192.439 396.588 186.195 388.904 186.195 388.904C186.195 388.904 190.361 398.985 184.571 402.243C179.303 405.22 174.799 399.014 174.799 399.014C174.799 399.014 176.278 405.558 170.643 407.443C163.876 409.705 161.885 395.612 153.041 391.977C151.021 391.107 155.67 335.683 155.67 335.683Z" fill="#AD6359"/>
<path d="M169.667 361.781C174.626 365.503 183.731 376.841 186.244 388.585C186.302 388.856 186.138 389.039 186.032 388.807C181.665 379.195 176.148 370.149 169.6 361.868C169.522 361.781 169.6 361.781 169.667 361.781Z" fill="#263238"/>
<path d="M160.02 371.089C163.973 374.743 172.837 386.844 174.973 398.84C175.021 399.11 174.837 399.284 174.75 399.043C170.88 389.221 165.909 379.869 159.933 371.166C159.875 371.108 159.933 371.04 160.02 371.089Z" fill="#263238"/>
<path d="M184.475 357.295C189.888 358.89 193.407 361.548 198.008 364.719C200.247 366.319 202.574 367.794 204.977 369.136C207.181 370.325 210.438 372.123 212.777 370.257C214.092 369.223 214.073 367.357 213.744 365.84C213.083 363.643 212.078 361.565 210.767 359.683C210.767 359.605 210.835 359.518 210.893 359.586C212.159 361.301 213.247 363.141 214.14 365.076C214.726 366.403 214.897 367.875 214.633 369.3C213.831 372.277 210.313 372.674 207.867 371.852C206.385 371.308 204.96 370.618 203.614 369.793C202.299 369.039 201.024 368.227 199.748 367.377C197.177 365.637 194.712 363.752 192.16 361.983C189.681 360.319 187.098 358.814 184.427 357.479C184.407 357.469 184.39 357.453 184.381 357.432C184.372 357.412 184.37 357.389 184.375 357.367C184.381 357.345 184.394 357.326 184.412 357.313C184.431 357.3 184.453 357.294 184.475 357.295Z" fill="#263238"/>
<path d="M195.813 376.339C194.412 373.255 186.824 360.4 184.369 357.422C184.36 357.408 184.356 357.39 184.358 357.373C184.36 357.356 184.368 357.34 184.38 357.327C184.392 357.315 184.408 357.307 184.426 357.305C184.443 357.303 184.46 357.307 184.475 357.316C188.699 361.318 195.475 371.941 197.041 375.343C198.607 378.746 200.405 383.008 200.405 386.749C200.405 392.404 196.654 393.515 195.272 393.757C193.618 394.056 191.911 393.777 190.439 392.964C188.717 391.912 187.23 390.517 186.07 388.866C186.012 388.789 186.118 388.682 186.186 388.76C188.119 390.992 191.406 393.187 194.47 392.781C195.149 392.716 195.809 392.517 196.41 392.193C197.011 391.869 197.541 391.428 197.969 390.896C198.806 389.536 199.129 387.92 198.877 386.343C198.425 382.86 197.39 379.478 195.813 376.339Z" fill="#263238"/>
<path d="M107.582 351.149L133.758 406.245C133.758 406.245 31.3755 429.23 22.5408 411.406C13.7061 393.582 53.472 323.833 71.383 303.515C92.1552 279.968 94.8037 287.981 90.2317 308.85C85.3987 330.695 76.187 362.284 76.187 362.284L107.582 351.149Z" fill="#2B948F"/>
<path opacity="0.1" d="M107.582 351.149L133.758 406.245C133.758 406.245 31.3755 429.23 22.5408 411.406C13.7061 393.582 53.472 323.833 71.383 303.515C92.1552 279.968 94.8037 287.981 90.2317 308.85C85.3987 330.695 76.187 362.284 76.187 362.284L107.582 351.149Z" fill="black"/>
<path d="M45.0726 376.948C54.5161 370.389 64.8861 365.278 75.8394 361.782C78.9422 360.815 82.074 359.897 85.2058 358.998C85.3024 358.998 85.3411 359.124 85.2058 359.153C79.7435 360.92 74.3891 363.005 69.1699 365.397C63.9567 367.717 58.8015 370.13 53.7043 372.637C50.8045 374.058 47.982 375.614 45.1402 377.131C45.1211 377.127 45.1034 377.118 45.0887 377.106C45.074 377.093 45.0627 377.076 45.056 377.058C45.0492 377.04 45.0472 377.02 45.0501 377.001C45.053 376.982 45.0607 376.963 45.0726 376.948Z" fill="#263238"/>
<path d="M107.311 351.002C106.799 351.138 78.7968 360.388 77.8785 360.813C77.9945 360.388 83.0208 345.502 83.7748 343.318C83.8424 343.105 83.9101 342.883 83.9874 342.67C84.4901 341.704 85.012 340.737 85.4857 339.77C86.085 338.504 86.6843 337.219 87.2739 335.904H87.2159L85.2827 339.645C84.983 340.215 84.7027 340.805 84.4224 341.394C84.9154 339.857 85.389 338.311 85.8626 336.755C86.6166 334.29 87.2932 331.796 87.9602 329.302C87.9602 329.215 87.8635 329.196 87.8345 329.302C86.3459 333.642 84.7221 337.934 83.2238 342.274C81.7256 346.614 75.9647 362.573 76.013 362.573C76.0613 362.573 106.848 351.689 107.447 351.447C107.476 351.438 107.503 351.424 107.527 351.404C107.55 351.385 107.57 351.361 107.584 351.334C107.599 351.307 107.607 351.278 107.61 351.247C107.613 351.217 107.61 351.186 107.601 351.157C107.593 351.128 107.578 351.101 107.559 351.077C107.539 351.053 107.515 351.034 107.488 351.02C107.462 351.005 107.432 350.996 107.402 350.993C107.371 350.99 107.341 350.993 107.311 351.002Z" fill="#263238"/>
<path d="M109.197 386.913C106.297 380.775 103.484 374.598 100.382 368.547C98.6127 365.116 96.8632 361.675 95.0653 358.263C94.9977 358.137 94.7657 358.263 94.8237 358.369C97.4722 364.652 100.14 370.935 103.078 377.111C106.017 383.288 108.878 389.387 111.865 395.477C113.566 398.937 115.374 402.343 117.287 405.694C117.287 405.761 117.442 405.694 117.413 405.694C114.977 399.295 112.106 393.118 109.197 386.913Z" fill="#263238"/>
<path d="M135.082 407.095C134.057 405.393 132.762 402.958 131.67 401.295C131.38 400.86 131.041 400.947 131.273 401.401C132.056 402.948 132.704 404.678 133.467 406.234C132.037 406.524 130.568 406.776 129.156 407.075C127.494 407.423 125.841 407.781 124.178 408.119C120.918 408.764 117.657 409.408 114.396 410.052C107.785 411.283 101.148 412.366 94.4846 413.3C81.136 415.255 67.6952 416.516 54.216 417.08C50.4463 417.215 46.6669 417.283 42.8972 417.234C39.1786 417.244 35.462 417.063 31.7619 416.693C31.6556 416.693 31.6363 416.857 31.7619 416.877C34.9458 417.549 38.1779 417.97 41.4279 418.133C44.84 418.297 48.2618 418.375 51.6836 418.336C58.4498 418.259 65.2836 417.814 72.0595 417.196C85.4952 415.958 98.8923 414.141 112.173 411.792C115.898 411.148 119.613 410.449 123.318 409.695C125.193 409.318 127.059 408.941 128.924 408.525C130.79 408.109 135.256 407.385 135.082 407.095Z" fill="#263238"/>
<path d="M119.056 305.119C112.29 306.984 100.178 296.98 95.229 288.687C94.8907 288.116 95.5577 281.969 96.012 274.458C96.273 269.906 96.447 264.792 96.273 260.172C96.273 259.205 125.687 266.184 125.687 266.184C125.687 266.184 123.173 276.024 123.521 284.124C123.552 284.776 123.643 285.423 123.792 286.057C123.819 286.159 123.838 286.262 123.85 286.367C124.575 289.953 125.6 303.311 119.056 305.119Z" fill="#AD6359"/>
<path d="M98.0713 260.288C99.7145 268.098 105.301 286.899 120.864 286.676C121.862 286.666 122.857 286.576 123.841 286.406C123.853 286.3 123.853 286.193 123.841 286.087C123.697 285.45 123.604 284.804 123.56 284.153C123.222 276.044 125.726 266.194 125.726 266.194C125.726 266.194 104.441 261.168 98.0713 260.288Z" fill="#263238"/>
<path d="M129.196 246.225C128.867 253.359 133.681 259.371 139.944 259.661C146.208 259.951 151.543 254.383 151.862 247.25C152.181 240.116 147.368 234.104 141.114 233.824C134.86 233.543 129.515 239.092 129.196 246.225Z" fill="#455A64"/>
<path d="M150.713 247.643C151.071 239.707 145.716 233.019 138.752 232.704C131.787 232.389 125.85 238.566 125.491 246.502C125.132 254.437 130.487 261.126 137.452 261.441C144.417 261.756 150.354 255.578 150.713 247.643Z" fill="#C7C7C7"/>
<path d="M100.11 223.161C95.0453 232.711 94.7263 263.072 100.681 271.017C109.312 282.52 126.276 286.744 136.735 275.753C146.913 265.063 146.623 225.49 139.712 217.98C129.553 206.893 107.592 209.058 100.11 223.161Z" fill="#AD6359"/>
<path d="M125.358 246.629C125.358 246.552 125.194 246.735 125.204 246.822C125.31 248.862 125.097 251.22 123.27 251.936C123.212 251.936 123.222 252.061 123.27 252.052C125.532 251.684 125.784 248.552 125.358 246.629Z" fill="#263238"/>
<path d="M123.482 244.543C120.186 244.369 120.079 250.971 123.124 251.126C126.169 251.281 126.246 244.688 123.482 244.543Z" fill="#263238"/>
<path d="M136.802 246.881C136.802 246.804 136.957 246.987 136.957 247.065C136.86 249.114 137.092 251.472 138.89 252.178C138.948 252.178 138.89 252.304 138.89 252.294C136.657 251.936 136.377 248.804 136.802 246.881Z" fill="#263238"/>
<path d="M138.668 244.822C141.955 244.619 142.109 251.221 139.055 251.405C136.001 251.588 135.904 244.938 138.668 244.822Z" fill="#263238"/>
<path d="M120.525 239.263C121.491 239.215 122.294 239.012 123.212 238.876C124.181 238.858 125.116 238.518 125.87 237.91C126.072 237.677 126.192 237.383 126.209 237.076C126.227 236.768 126.141 236.463 125.967 236.208C125.544 235.764 125.011 235.44 124.421 235.27C123.831 235.1 123.207 235.09 122.613 235.242C121.353 235.342 120.177 235.911 119.317 236.837C119.136 237.059 119.024 237.328 118.992 237.612C118.961 237.896 119.012 238.183 119.139 238.439C119.267 238.695 119.465 238.908 119.711 239.055C119.957 239.201 120.239 239.273 120.525 239.263Z" fill="#263238"/>
<path d="M141.771 239.989C140.888 239.795 140.017 239.553 139.161 239.264C138.21 239.149 137.323 238.725 136.638 238.056C136.465 237.801 136.381 237.495 136.4 237.187C136.419 236.879 136.54 236.586 136.744 236.355C137.217 235.958 137.787 235.695 138.395 235.591C139.003 235.488 139.627 235.548 140.205 235.765C141.441 236.025 142.536 236.734 143.278 237.756C143.423 237.999 143.496 238.278 143.488 238.56C143.48 238.843 143.391 239.117 143.233 239.351C143.075 239.585 142.854 239.77 142.595 239.883C142.336 239.996 142.05 240.032 141.771 239.989Z" fill="#263238"/>
<path d="M121.626 265.585C122.11 266.069 122.593 266.736 123.328 266.813C124.088 266.806 124.838 266.642 125.532 266.33C125.545 266.327 125.56 266.328 125.573 266.332C125.587 266.337 125.598 266.345 125.607 266.356C125.616 266.367 125.622 266.381 125.624 266.395C125.626 266.409 125.624 266.423 125.619 266.436C125.322 266.835 124.922 267.146 124.463 267.335C124.003 267.524 123.5 267.584 123.009 267.509C122.593 267.393 122.221 267.156 121.939 266.83C121.657 266.503 121.478 266.101 121.423 265.672C121.394 265.556 121.549 265.508 121.626 265.585Z" fill="#263238"/>
<path d="M123.879 259.494C124.384 260.311 125.053 261.015 125.843 261.561C126.633 262.106 127.528 262.482 128.471 262.665C129.293 262.84 130.136 262.896 130.974 262.829C131.136 262.823 131.298 262.807 131.458 262.781L131.902 262.713C132.012 262.695 132.112 262.642 132.189 262.562C132.266 262.482 132.314 262.379 132.327 262.268C132.332 262.198 132.332 262.127 132.327 262.056V261.872C132.395 260.297 132.327 257.899 132.327 257.899C132.898 258.199 135.817 259.572 135.778 258.75C135.488 251.926 135.16 244.348 133.429 237.63C133.42 237.587 133.396 237.549 133.361 237.522C133.327 237.494 133.285 237.479 133.241 237.479C133.197 237.479 133.155 237.494 133.12 237.522C133.086 237.549 133.062 237.587 133.052 237.63C133.052 244.193 134.251 250.708 134.377 257.3C133.342 256.8 132.242 256.445 131.11 256.247C130.887 256.314 131.409 260.877 131.322 261.582C131.324 261.608 131.324 261.634 131.322 261.66C128.664 261.95 126.683 261.118 124.15 259.301C123.918 259.195 123.754 259.32 123.879 259.494Z" fill="#263238"/>
<path d="M130.056 262.008C129.177 263.12 128.025 263.986 126.712 264.521C125.987 264.789 125.196 264.826 124.45 264.627C122.826 264.163 122.806 262.694 123.125 261.389C123.304 260.717 123.56 260.068 123.889 259.456C125.62 260.942 127.781 261.836 130.056 262.008Z" fill="#263238"/>
<path d="M126.712 264.522C125.987 264.791 125.196 264.828 124.45 264.629C122.826 264.165 122.806 262.696 123.125 261.391C124.875 261.603 126.586 262.821 126.712 264.522Z" fill="#FF98B9"/>
<path opacity="0.2" d="M96.3105 244.6C98.3017 244.281 103.077 237.543 105.097 234.866C107.117 232.188 108.287 217.834 108.47 214.567C104.926 216.572 102.023 219.542 100.1 223.131C97.8378 227.423 96.5329 235.862 96.3105 244.6Z" fill="#263238"/>
<path d="M133.168 226.457C131.988 227.752 130.497 228.724 128.835 229.28C127.174 229.837 125.398 229.96 123.676 229.637C121.919 229.314 120.274 228.546 118.896 227.408C117.519 226.269 116.456 224.797 115.808 223.132C115.808 223.026 115.615 223.084 115.654 223.18C116.176 224.994 117.184 226.631 118.569 227.914C119.954 229.197 121.663 230.077 123.512 230.459C125.349 230.736 127.226 230.525 128.955 229.846C130.684 229.168 132.204 228.045 133.362 226.593C133.368 226.568 133.367 226.541 133.358 226.517C133.349 226.493 133.333 226.472 133.312 226.457C133.291 226.443 133.266 226.435 133.24 226.435C133.215 226.435 133.189 226.442 133.168 226.457Z" fill="#263238"/>
<path d="M123.347 200.726C117.383 200.668 111.816 203.79 109.505 207.773C108.222 210.042 107.745 212.679 108.152 215.254C108.152 215.361 108.374 215.341 108.365 215.254C108.315 212.985 108.876 210.744 109.99 208.766C111.104 206.788 112.729 205.146 114.696 204.013C116.849 202.693 119.28 201.891 121.795 201.67C124.311 201.448 126.844 201.814 129.195 202.737C131.486 203.585 133.399 205.223 134.589 207.357C134.705 207.58 135.149 207.454 135.062 207.232C133.554 203.443 128.731 200.775 123.347 200.726Z" fill="#263238"/>
<path d="M157.517 214.733C156.633 211.762 154.73 209.199 152.143 207.493C148.557 205.115 144.41 205.318 140.312 205.608C140.289 205.608 140.266 205.617 140.25 205.633C140.234 205.65 140.225 205.672 140.225 205.695C140.225 205.718 140.234 205.74 140.25 205.756C140.266 205.773 140.289 205.782 140.312 205.782C143.811 205.55 147.377 205.511 150.529 207.261C153.151 208.681 155.201 210.966 156.328 213.727C157.401 216.56 157.415 219.684 156.367 222.526C155.319 225.367 153.28 227.735 150.625 229.193C149.077 229.993 147.381 230.468 145.643 230.589C143.904 230.711 142.159 230.475 140.515 229.898C140.379 229.85 140.283 230.034 140.408 230.092C142.63 230.967 145.051 231.207 147.401 230.785C149.751 230.363 151.937 229.295 153.715 227.701C155.492 226.107 156.791 224.049 157.466 221.759C158.141 219.469 158.166 217.036 157.536 214.733H157.517Z" fill="#263238"/>
<path d="M97.9549 229.008C97.9549 229.008 92.6773 218.153 97.6263 212.16C100.429 208.768 109.303 209.541 109.303 209.541C109.303 209.541 112.348 204.543 119.771 203.123C127.195 201.702 135.952 206.351 135.952 206.351C135.952 206.351 143.163 202.572 149.639 206.593C158.677 212.199 157.014 226.205 147.561 230.381C140.93 233.28 132.288 227.23 132.288 227.23C131.428 227.317 122.516 232.246 116.214 224.233C116.214 224.233 110.685 228.795 105.997 225.287C105.199 226.656 104 227.748 102.562 228.414C101.123 229.079 99.5152 229.287 97.9549 229.008Z" fill="#263238"/>
<path d="M101.753 248.273C101.753 248.273 96.7367 237.64 92.0101 239.226C87.2834 240.811 89.9029 255.522 94.6392 258.287C95.2236 258.683 95.8821 258.958 96.5752 259.093C97.2683 259.229 97.9816 259.223 98.6723 259.076C99.363 258.928 100.017 258.643 100.594 258.237C101.172 257.831 101.662 257.312 102.034 256.711L101.753 248.273Z" fill="#AD6359"/>
<path d="M92.8603 243.411C92.783 243.411 92.7443 243.508 92.8603 243.546C96.1661 245.596 97.471 249.22 98.1863 252.864C97.3647 251.366 96.0404 250.4 94.0686 251.347C94.0482 251.36 94.0325 251.38 94.0239 251.403C94.0153 251.426 94.0141 251.451 94.0205 251.474C94.027 251.498 94.0407 251.519 94.0597 251.534C94.0788 251.549 94.1022 251.558 94.1266 251.56C94.7866 251.47 95.4583 251.586 96.0498 251.893C96.6414 252.199 97.1242 252.68 97.4323 253.27C97.9333 254.264 98.3286 255.307 98.6116 256.383C98.7276 256.731 99.3269 256.654 99.2689 256.267C99.2734 256.238 99.2734 256.209 99.2689 256.18C100.081 251.666 97.6546 244.716 92.8603 243.411Z" fill="#263238"/>
<path d="M112.685 269.683L103.164 265.575L95.5088 256.044L96.978 254.855L104.344 264.028L113.439 267.953L112.685 269.683Z" fill="#C7C7C7"/>
<path d="M111.67 268.166C112.637 265.392 120.369 266.416 118.968 270.611C117.566 274.806 110.732 270.921 111.67 268.166Z" fill="#37474F"/>
<path d="M91.8643 238.936C91.8643 238.936 90.8301 223.344 95.3924 214.771C100.477 205.192 121.549 196.077 135.99 206.371C135.99 206.371 112.53 202.176 101.598 215.457C96.997 221.044 97.113 239.371 97.113 239.371L91.8643 238.936Z" fill="#C7C7C7"/>
<path d="M93.9933 261.327C100.965 261.258 106.552 254.763 106.473 246.82C106.394 238.876 100.679 232.494 93.7071 232.563C86.7356 232.632 81.148 239.128 81.2271 247.071C81.3061 255.014 87.0217 261.397 93.9933 261.327Z" fill="#C7C7C7"/>
<path d="M102.788 246.408C102.856 253.552 97.8393 259.39 91.5758 259.448C85.3122 259.506 80.1699 253.774 80.1022 246.631C80.0346 239.488 85.0512 233.649 91.3148 233.591C97.5784 233.533 102.721 239.265 102.788 246.408Z" fill="#455A64"/>
<path d="M123.734 285.883L116.919 303.089L95.48 281.456L89.4678 288.454C89.4678 288.454 110.491 322.875 110.617 321.319L117.625 306.481L127.89 316.737L126.923 290.89L123.734 285.883Z" fill="#EBEBEB"/>
<path d="M128.141 303.93C127.842 299.668 127.668 295.366 127.175 291.123C127.175 290.978 126.923 290.91 126.885 291.123C126.054 295.25 127.281 311.537 127.281 315.452H127.233C126.807 315.008 117.721 306.434 117.634 306.569C116.117 308.928 110.965 319.725 110.617 320.711C107.292 315.24 93.2182 293.694 89.2551 288.523C89.2359 288.489 89.2042 288.465 89.167 288.455C89.1299 288.445 89.0903 288.45 89.057 288.47C89.0236 288.489 88.9993 288.521 88.9893 288.558C88.9794 288.595 88.9846 288.634 89.0038 288.668C91.9036 294.467 110.172 322.895 110.424 322.818C113.136 317.721 115.584 312.488 117.76 307.139C119.297 309.005 128.46 318.69 128.489 318.052C128.623 313.342 128.507 308.628 128.141 303.93Z" fill="#263238"/>
<path d="M235.27 424.61H228.639V428.941H235.27V424.61Z" fill="#455A64"/>
<path d="M243.863 424.32H237.232V428.651H243.863V424.32Z" fill="#455A64"/>
<path d="M252.466 424.03H245.835V428.361H252.466V424.03Z" fill="#455A64"/>
<path d="M261.068 423.749H254.438V428.079H261.068V423.749Z" fill="#455A64"/>
<path d="M269.671 423.46H263.04V427.79H269.671V423.46Z" fill="#455A64"/>
<path d="M278.273 423.179H271.643V427.509H278.273V423.179Z" fill="#455A64"/>
<path d="M286.876 422.889H280.245V427.219H286.876V422.889Z" fill="#455A64"/>
<path d="M295.479 422.6H288.848V426.93H295.479V422.6Z" fill="#455A64"/>
<path d="M304.073 422.318H297.442V426.649H304.073V422.318Z" fill="#455A64"/>
<path d="M305.705 431.424H227.005V426.156L305.705 423.962V431.424Z" fill="#37474F"/>
<path d="M382.512 410.652H252.602L273.258 313.935H403.169L382.512 410.652Z" fill="#455A64"/>
<path d="M387.316 410.652H257.405L278.061 313.935H407.972L387.316 410.652Z" fill="#37474F"/>
<path d="M340.923 362.121C344.448 358.864 345.05 353.783 342.267 350.771C339.485 347.76 334.372 347.96 330.847 351.217C327.322 354.474 326.72 359.555 329.503 362.566C332.285 365.577 337.398 365.378 340.923 362.121Z" fill="#263238"/>
<path d="M350.576 435.91H286.684V430.942L350.576 428.883V435.91Z" fill="#455A64"/>
<path d="M367.945 435.899H333.641L312.975 381.702H347.279L367.945 435.899Z" fill="#455A64"/>
<path d="M373.591 435.899H339.286L318.63 381.702H352.935L373.591 435.899Z" fill="#263238"/>
<path d="M224.579 437.224H158.705C153.089 437.224 161.218 421.217 181.739 415.079C202.26 408.941 231.055 431.221 224.579 437.224Z" fill="#37474F"/>
<path d="M198.732 437.224C198.785 435.399 199.088 433.591 199.631 431.849C200.162 430.093 200.905 428.408 201.845 426.833C202.79 425.25 203.97 423.819 205.344 422.589C206.703 421.356 208.271 420.374 209.974 419.689C209.268 420.269 208.466 420.656 207.818 421.304L206.852 422.164L205.885 423.131C204.664 424.405 203.593 425.816 202.695 427.335C201.783 428.855 201.001 430.449 200.356 432.101C199.701 433.77 199.158 435.481 198.732 437.224Z" fill="#263238"/>
<path d="M206.533 421.991C210.446 423.286 214.148 425.145 217.523 427.51C219.229 428.689 220.773 430.087 222.115 431.667C222.774 432.475 223.341 433.353 223.806 434.286C224.266 435.219 224.529 436.235 224.58 437.273C224.349 436.289 223.947 435.353 223.391 434.509C222.865 433.662 222.249 432.874 221.554 432.16C220.146 430.733 218.609 429.438 216.963 428.293C215.329 427.114 213.599 426.061 211.869 425.017C210.999 424.495 210.11 423.992 209.22 423.509C208.331 423.025 207.432 422.484 206.533 421.991Z" fill="#263238"/>
<path d="M229.297 217.651C228.729 223.042 226.674 228.169 223.361 232.46C220.049 236.752 215.61 240.039 210.539 241.954C205.467 243.87 199.964 244.339 194.641 243.309C189.319 242.279 184.387 239.791 180.397 236.122L165.733 238.307L173.06 225.654C171.229 221.196 170.538 216.353 171.05 211.561C171.425 207.719 172.557 203.989 174.38 200.586C176.203 197.183 178.681 194.175 181.671 191.734C184.662 189.292 188.106 187.467 191.805 186.362C195.504 185.258 199.385 184.896 203.224 185.297C207.064 185.699 210.786 186.856 214.176 188.702C217.567 190.549 220.558 193.047 222.979 196.054C225.4 199.061 227.202 202.518 228.281 206.224C229.36 209.931 229.696 213.814 229.268 217.651H229.297Z" fill="white"/>
<path d="M229.297 217.649C228.734 223.045 226.69 228.18 223.391 232.487C222.571 233.558 221.687 234.578 220.742 235.541C219.763 236.471 218.73 237.342 217.649 238.151C215.496 239.79 213.12 241.115 210.593 242.085C208.067 243.074 205.416 243.705 202.715 243.96C201.363 244.087 200.002 244.113 198.646 244.038C197.287 244.006 195.933 243.867 194.596 243.622C189.192 242.63 184.172 240.154 180.097 236.469L180.445 236.575L165.82 238.828L164.767 239.021L165.298 238.054L172.586 225.363V225.866C170.876 221.708 170.137 217.215 170.425 212.729C170.713 208.242 172.02 203.881 174.247 199.976C176.475 196.071 179.564 192.725 183.279 190.194C186.994 187.663 191.237 186.012 195.687 185.368C200.136 184.723 204.673 185.102 208.954 186.476C213.235 187.85 217.145 190.181 220.389 193.294C223.633 196.407 226.124 200.219 227.672 204.439C229.221 208.659 229.786 213.178 229.326 217.649H229.297ZM229.297 217.649C229.756 213.244 229.199 208.793 227.671 204.636C226.142 200.479 223.681 196.728 220.477 193.669C217.274 190.611 213.412 188.328 209.189 186.994C204.965 185.66 200.492 185.311 196.113 185.974C191.771 186.622 187.635 188.255 184.021 190.749C180.448 193.264 177.46 196.521 175.264 200.299C173.103 204.096 171.827 208.332 171.533 212.691C171.263 217.058 171.973 221.431 173.611 225.489L173.717 225.75L173.572 225.982L166.207 238.615L165.685 237.842L180.339 235.793H180.542L180.686 235.928C184.597 239.589 189.451 242.089 194.702 243.148C196.012 243.412 197.34 243.573 198.675 243.632C200.007 243.723 201.344 243.723 202.677 243.632C205.351 243.427 207.983 242.848 210.496 241.911C213.022 240.998 215.4 239.718 217.553 238.112C218.631 237.311 219.664 236.449 220.646 235.532C221.593 234.578 222.48 233.568 223.304 232.506C226.639 228.205 228.714 223.061 229.297 217.649Z" fill="#263238"/>
<path d="M216.509 215.494C216.511 216.196 216.304 216.883 215.916 217.467C215.527 218.052 214.974 218.508 214.326 218.778C213.678 219.048 212.964 219.12 212.275 218.984C211.587 218.848 210.954 218.511 210.457 218.015C209.959 217.52 209.621 216.888 209.483 216.199C209.345 215.511 209.415 214.797 209.683 214.148C209.951 213.499 210.406 212.945 210.99 212.555C211.573 212.164 212.259 211.956 212.961 211.956C213.427 211.955 213.888 212.045 214.318 212.223C214.749 212.4 215.14 212.66 215.469 212.989C215.799 213.317 216.06 213.708 216.239 214.138C216.417 214.568 216.509 215.028 216.509 215.494Z" fill="#263238"/>
<path d="M203.808 215.494C203.81 216.196 203.603 216.883 203.214 217.468C202.825 218.053 202.271 218.509 201.622 218.779C200.974 219.049 200.26 219.12 199.571 218.983C198.882 218.847 198.249 218.509 197.752 218.012C197.255 217.515 196.917 216.882 196.781 216.193C196.644 215.504 196.715 214.79 196.985 214.141C197.254 213.493 197.711 212.939 198.295 212.55C198.88 212.161 199.568 211.954 200.27 211.956C201.208 211.956 202.108 212.329 202.772 212.992C203.435 213.656 203.808 214.556 203.808 215.494Z" fill="#263238"/>
<path d="M191.116 215.494C191.118 216.196 190.912 216.883 190.523 217.467C190.135 218.052 189.581 218.508 188.933 218.778C188.285 219.048 187.572 219.12 186.883 218.984C186.194 218.848 185.561 218.511 185.064 218.015C184.567 217.52 184.228 216.887 184.09 216.199C183.953 215.511 184.022 214.797 184.291 214.148C184.559 213.499 185.013 212.945 185.597 212.555C186.181 212.164 186.867 211.956 187.569 211.956C188.508 211.956 189.409 212.328 190.074 212.992C190.739 213.655 191.114 214.555 191.116 215.494Z" fill="#263238"/>
<path d="M241.699 65.8742C242.268 71.2651 244.322 76.3921 247.634 80.6839C250.945 84.9756 255.383 88.2634 260.454 90.1807C265.524 92.098 271.028 92.5696 276.35 91.5427C281.673 90.5159 286.606 88.0311 290.599 84.3652L305.234 86.5111L297.916 73.8583C299.594 69.7381 300.311 65.2896 300.012 60.8509C299.713 56.4122 298.406 52.1 296.19 48.2422C293.975 44.3843 290.909 41.0823 287.226 38.5871C283.543 36.0918 279.339 34.469 274.935 33.842C270.531 33.215 266.041 33.6002 261.808 34.9684C257.575 36.3367 253.709 38.6519 250.505 41.7381C247.301 44.8244 244.842 48.6005 243.317 52.7794C241.791 56.9583 241.237 61.43 241.699 65.8548V65.8742Z" fill="white"/>
<path d="M250.456 41.6999C253.643 38.5563 257.51 36.1875 261.759 34.7763C266.008 33.3651 270.524 32.9494 274.959 33.5612C279.425 34.1502 283.697 35.7538 287.447 38.2492C293.129 42.0417 297.325 47.6816 299.324 54.2136C301.324 60.7455 301.003 67.7677 298.418 74.0907V73.588L305.687 86.2988L306.219 87.2654L305.165 87.1011L290.531 84.8586L290.879 84.7523C286.804 88.4368 281.783 90.9136 276.38 91.9051C275.043 92.1501 273.689 92.2891 272.33 92.3207C270.976 92.3916 269.62 92.3658 268.27 92.2434C262.849 91.7265 257.677 89.7192 253.326 86.4438C252.245 85.6352 251.212 84.7637 250.233 83.834C249.291 82.8686 248.407 81.8487 247.585 80.7795C243.203 75.0548 241.073 67.9218 241.599 60.7318C242.124 53.5419 245.269 46.7944 250.436 41.7676L250.456 41.6999ZM247.691 80.6442C248.515 81.7029 249.402 82.7101 250.349 83.66C251.326 84.5831 252.359 85.445 253.442 86.2408C255.595 87.8553 257.976 89.1389 260.508 90.0492C263.019 90.9819 265.648 91.561 268.318 91.7698C269.654 91.8616 270.994 91.8616 272.33 91.7698C273.661 91.7107 274.986 91.5491 276.293 91.2865C281.544 90.2275 286.397 87.7273 290.308 84.066L290.453 83.9307H290.656L305.31 85.9798L304.788 86.7531L297.423 74.1197L297.278 73.878L297.384 73.617C299.025 69.5753 299.729 65.2143 299.442 60.8615C299.156 56.5088 297.887 52.2775 295.731 48.4855C293.537 44.706 290.549 41.4476 286.974 38.9355C283.363 36.4432 279.23 34.8099 274.891 34.1605C269.156 33.2749 263.287 34.1341 258.046 36.6264C252.806 39.1187 248.435 43.1289 245.503 48.1366C242.57 53.1442 241.21 58.9178 241.601 64.7078C241.991 70.4978 244.113 76.0368 247.691 80.6056V80.6442Z" fill="#263238"/>
<path d="M273.412 66.4063V70.06C273.42 70.424 273.355 70.7858 273.219 71.1236C273.083 71.4614 272.881 71.7682 272.623 72.0256C272.366 72.283 272.059 72.4856 271.721 72.6213C271.383 72.7569 271.022 72.8228 270.658 72.8149C269.928 72.8123 269.229 72.5213 268.713 72.0052C268.196 71.4891 267.905 70.7899 267.903 70.06V64.2605C267.903 64.2025 267.961 64.2025 267.961 64.1445C267.961 64.0865 267.903 64.0865 267.903 64.0381C267.922 63.3137 268.219 62.6243 268.731 62.1118C269.244 61.5994 269.933 61.3029 270.658 61.2833C271.524 61.3514 272.395 61.2394 273.217 60.9545C274.038 60.6696 274.791 60.218 275.429 59.6279C276.068 59.0378 276.577 58.3221 276.925 57.5258C277.273 56.7294 277.453 55.8696 277.453 55.0004C277.453 54.1313 277.273 53.2715 276.925 52.4751C276.577 51.6788 276.068 50.9631 275.429 50.373C274.791 49.7829 274.038 49.3312 273.217 49.0464C272.395 48.7615 271.524 48.6495 270.658 48.7175C269.566 48.7131 268.493 48.9968 267.546 49.5399C266.599 50.083 265.812 50.8662 265.264 51.8107C265.076 52.1305 264.826 52.4096 264.529 52.6318C264.232 52.854 263.894 53.0148 263.534 53.1048C263.174 53.1947 262.799 53.2121 262.433 53.1559C262.066 53.0997 261.714 52.971 261.398 52.7773C261.086 52.5938 260.814 52.3506 260.596 52.0617C260.379 51.7727 260.221 51.4436 260.131 51.0933C260.041 50.743 260.021 50.3784 260.073 50.0205C260.124 49.6625 260.246 49.3183 260.431 49.0075C261.409 47.3102 262.794 45.8827 264.461 44.8537C266.128 43.8247 268.024 43.2264 269.98 43.1127C271.936 42.999 273.889 43.3735 275.664 44.2025C277.439 45.0314 278.98 46.2888 280.148 47.8614C281.316 49.434 282.074 51.2724 282.355 53.2112C282.636 55.1499 282.43 57.128 281.757 58.9674C281.083 60.8069 279.962 62.4498 278.495 63.7484C277.029 65.047 275.262 65.9603 273.355 66.4063H273.412ZM273.412 78.7111V79.6777C273.422 80.042 273.357 80.4044 273.222 80.7428C273.087 81.0813 272.884 81.3887 272.626 81.6463C272.369 81.904 272.061 82.1066 271.723 82.2418C271.384 82.3769 271.022 82.4418 270.658 82.4325C269.927 82.4325 269.226 82.1423 268.71 81.6257C268.193 81.109 267.903 80.4083 267.903 79.6777V78.7111C267.913 77.9836 268.206 77.2887 268.721 76.7742C269.235 76.2598 269.93 75.9663 270.658 75.9563C271.021 75.9524 271.381 76.021 271.716 76.1581C272.052 76.2952 272.358 76.4979 272.614 76.7545C272.871 77.0111 273.074 77.3163 273.211 77.6523C273.348 77.9883 273.416 78.3483 273.412 78.7111Z" fill="#2B948F"/>
</svg>
