<svg width="64" height="65" viewBox="0 0 64 65" fill="none" xmlns="http://www.w3.org/2000/svg">
<path d="M0 8.27246C0 3.85418 3.58172 0.272461 8 0.272461H56C60.4183 0.272461 64 3.85418 64 8.27246V56.2725C64 60.6907 60.4183 64.2725 56 64.2725H8C3.58172 64.2725 0 60.6907 0 56.2725V8.27246Z" fill="#F7F7F7"/>
<path d="M20 36.2728H44M20 41.6061H33.3333M44 25.6061H33.3333M44 30.9395H33.3333M22.1333 30.9395H25.8667C26.6134 30.9395 26.9868 30.9395 27.272 30.7941C27.5229 30.6663 27.7268 30.4623 27.8547 30.2114C28 29.9262 28 29.5529 28 28.8061V25.0728C28 24.326 28 23.9527 27.8547 23.6675C27.7268 23.4166 27.5229 23.2126 27.272 23.0848C26.9868 22.9395 26.6134 22.9395 25.8667 22.9395H22.1333C21.3866 22.9395 21.0132 22.9395 20.728 23.0848C20.4771 23.2126 20.2732 23.4166 20.1453 23.6675C20 23.9527 20 24.326 20 25.0728V28.8061C20 29.5529 20 29.9262 20.1453 30.2114C20.2732 30.4623 20.4771 30.6663 20.728 30.7941C21.0132 30.9395 21.3866 30.9395 22.1333 30.9395Z" stroke="#2B948F" stroke-width="2" stroke-linecap="round" stroke-linejoin="round"/>
</svg>
