<svg width="64" height="65" viewBox="0 0 64 65" fill="none" xmlns="http://www.w3.org/2000/svg">
<path d="M0 8.27246C0 3.85418 3.58172 0.272461 8 0.272461H56C60.4183 0.272461 64 3.85418 64 8.27246V56.2725C64 60.6907 60.4183 64.2725 56 64.2725H8C3.58172 64.2725 0 60.6907 0 56.2725V8.27246Z" fill="#F7F7F7"/>
<path d="M21.333 26.2725L31.6075 20.4931C31.7505 20.4126 31.8221 20.3724 31.8979 20.3566C31.965 20.3426 32.0343 20.3426 32.1014 20.3566C32.1773 20.3724 32.2488 20.4126 32.3919 20.4931L42.6663 26.2725M21.333 26.2725V37.8046C21.333 37.9749 21.333 38.0601 21.358 38.1361C21.3801 38.2034 21.4163 38.2652 21.4641 38.3175C21.5181 38.3766 21.5923 38.4183 21.7408 38.5018L31.9997 44.2725M21.333 26.2725L31.9997 31.6058M31.9997 44.2725L42.2585 38.5018C42.407 38.4183 42.4812 38.3766 42.5353 38.3175C42.5831 38.2652 42.6192 38.2034 42.6413 38.1361C42.6663 38.0601 42.6663 37.9749 42.6663 37.8046V26.2725M31.9997 44.2725V31.6058M42.6663 26.2725L31.9997 31.6058" stroke="#2B948F" stroke-width="2" stroke-linecap="round" stroke-linejoin="round"/>
</svg>
