<svg width="64" height="65" viewBox="0 0 64 65" fill="none" xmlns="http://www.w3.org/2000/svg">
<path d="M0 8.27246C0 3.85418 3.58172 0.272461 8 0.272461H56C60.4183 0.272461 64 3.85418 64 8.27246V56.2725C64 60.6907 60.4183 64.2725 56 64.2725H8C3.58172 64.2725 0 60.6907 0 56.2725V8.27246Z" fill="#F7F7F7"/>
<path d="M31.9997 35.6058V38.2725M25.333 29.6442C25.9616 29.6058 26.7365 29.6058 27.733 29.6058H36.2663C37.2629 29.6058 38.0378 29.6058 38.6663 29.6442M25.333 29.6442C24.5486 29.6921 23.9921 29.7997 23.517 30.0418C22.7644 30.4253 22.1525 31.0372 21.769 31.7898C21.333 32.6455 21.333 33.7656 21.333 36.0058V37.8725C21.333 40.1127 21.333 41.2328 21.769 42.0884C22.1525 42.8411 22.7644 43.453 23.517 43.8365C24.3727 44.2725 25.4928 44.2725 27.733 44.2725H36.2663C38.5066 44.2725 39.6267 44.2725 40.4823 43.8365C41.235 43.453 41.8469 42.8411 42.2304 42.0884C42.6663 41.2328 42.6663 40.1127 42.6663 37.8725V36.0058C42.6663 33.7656 42.6663 32.6455 42.2304 31.7898C41.8469 31.0372 41.235 30.4253 40.4823 30.0418C40.0073 29.7997 39.4508 29.6921 38.6663 29.6442M25.333 29.6442V26.9391C25.333 23.2572 28.3178 20.2725 31.9997 20.2725C35.6816 20.2725 38.6663 23.2572 38.6663 26.9391V29.6442" stroke="#2B948F" stroke-width="2" stroke-linecap="round" stroke-linejoin="round"/>
</svg>
