<svg width="64" height="65" viewBox="0 0 64 65" fill="none" xmlns="http://www.w3.org/2000/svg">
<path d="M0 8.27246C0 3.85418 3.58172 0.272461 8 0.272461H56C60.4183 0.272461 64 3.85418 64 8.27246V56.2725C64 60.6907 60.4183 64.2725 56 64.2725H8C3.58172 64.2725 0 60.6907 0 56.2725V8.27246Z" fill="#F7F7F7"/>
<path d="M33.0668 44.9901C32.6782 45.2144 32.4839 45.3266 32.2773 45.3705C32.0946 45.4094 31.9057 45.4094 31.7229 45.3705C31.5164 45.3266 31.3221 45.2144 30.9335 44.9901L21.5198 39.5551C21.1312 39.3307 20.9369 39.2186 20.7956 39.0616C20.6706 38.9228 20.5761 38.7592 20.5184 38.5815C20.4531 38.3806 20.4531 38.1563 20.4531 37.7076V26.8376C20.4531 26.3889 20.4531 26.1645 20.5184 25.9637C20.5761 25.786 20.6706 25.6224 20.7956 25.4835C20.9369 25.3266 21.1312 25.2144 21.5198 24.9901L30.9335 19.5551C31.3221 19.3307 31.5164 19.2186 31.7229 19.1746C31.9057 19.1358 32.0946 19.1358 32.2773 19.1746C32.4839 19.2186 32.6782 19.3307 33.0668 19.5551L42.4805 24.9901C42.8691 25.2144 43.0634 25.3266 43.2047 25.4835C43.3297 25.6224 43.4241 25.786 43.4819 25.9637C43.5471 26.1645 43.5471 26.3889 43.5471 26.8376V37.7076C43.5471 38.1563 43.5471 38.3806 43.4819 38.5815C43.4241 38.7592 43.3297 38.9228 43.2047 39.0616C43.0634 39.2186 42.8691 39.3307 42.4805 39.5551L33.0668 44.9901Z" stroke="#2B948F" stroke-width="2" stroke-linejoin="round"/>
</svg>
