<svg width="64" height="65" viewBox="0 0 64 65" fill="none" xmlns="http://www.w3.org/2000/svg">
<path d="M0 8.27246C0 3.85418 3.58172 0.272461 8 0.272461H56C60.4183 0.272461 64 3.85418 64 8.27246V56.2725C64 60.6907 60.4183 64.2725 56 64.2725H8C3.58172 64.2725 0 60.6907 0 56.2725V8.27246Z" fill="#F7F7F7"/>
<path d="M39.2 29.6058L44 32.2725L39.2 34.9391M39.2 29.6058L32 33.6058L24.8 29.6058M39.2 29.6058L44 26.9391L32 20.2725L20 26.9391L24.8 29.6058M24.8 29.6058L20 32.2725L24.8 34.9391M39.2 34.9391L44 37.6058L32 44.2725L20 37.6058L24.8 34.9391M39.2 34.9391L32 38.9391L24.8 34.9391" stroke="#2B948F" stroke-width="2" stroke-linecap="round" stroke-linejoin="round"/>
</svg>
