<svg width="64" height="65" viewBox="0 0 64 65" fill="none" xmlns="http://www.w3.org/2000/svg">
<path d="M0 8.84961C0 4.43133 3.58172 0.849609 8 0.849609H56C60.4183 0.849609 64 4.43133 64 8.84961V56.8496C64 61.2679 60.4183 64.8496 56 64.8496H8C3.58172 64.8496 0 61.2679 0 56.8496V8.84961Z" fill="#F7F7F7"/>
<path d="M32 38.1829C30.1591 38.1829 28.6667 39.6753 28.6667 41.5163C28.6667 43.3572 30.1591 44.8496 32 44.8496C33.8409 44.8496 35.3333 43.3572 35.3333 41.5163C35.3333 39.6753 33.8409 38.1829 32 38.1829ZM32 38.1829V32.8496M23.3333 27.5163C25.1743 27.5163 26.6667 26.0239 26.6667 24.1829C26.6667 22.342 25.1743 20.8496 23.3333 20.8496C21.4924 20.8496 20 22.342 20 24.1829C20 26.0239 21.4924 27.5163 23.3333 27.5163ZM23.3333 27.5163V28.5829C23.3333 30.0764 23.3333 30.8232 23.624 31.3936C23.8796 31.8953 24.2876 32.3033 24.7894 32.559C25.3598 32.8496 26.1065 32.8496 27.6 32.8496H36.4C37.8935 32.8496 38.6402 32.8496 39.2106 32.559C39.7124 32.3033 40.1204 31.8953 40.376 31.3936C40.6667 30.8232 40.6667 30.0764 40.6667 28.5829V27.5163M40.6667 27.5163C42.5076 27.5163 44 26.0239 44 24.1829C44 22.342 42.5076 20.8496 40.6667 20.8496C38.8257 20.8496 37.3333 22.342 37.3333 24.1829C37.3333 26.0239 38.8257 27.5163 40.6667 27.5163Z" stroke="#2B948F" stroke-width="2" stroke-linecap="round" stroke-linejoin="round"/>
</svg>
